<svg xmlns="http://www.w3.org/2000/svg" version="1.1" xmlns:xlink="http://www.w3.org/1999/xlink" width="1000" height="1000"><g clip-path="url(#SvgjsClipPath1069)"><rect width="1000" height="1000" fill="#f0eeeb"></rect><g transform="matrix(1.6666666666666667,0,0,1.6666666666666667,0,0)"><svg xmlns="http://www.w3.org/2000/svg" version="1.1" id="svg" width="600" height="600"><path d="M379.556 129.777 C 379.159 130.175,363.683 130.554,345.167 130.620 C 326.650 130.685,310.375 131.031,309.000 131.388 C 307.625 131.744,304.925 132.282,303.000 132.582 C 292.718 134.185,274.017 138.359,263.000 141.510 C 256.125 143.477,247.800 145.860,244.500 146.806 C 241.200 147.753,238.050 148.799,237.500 149.132 C 236.950 149.465,234.700 150.300,232.500 150.987 C 220.627 154.695,196.077 166.747,180.500 176.514 C 167.186 184.862,169.355 183.254,158.500 192.827 C 148.783 201.396,140.743 210.002,133.580 219.500 C 131.092 222.800,128.705 225.953,128.278 226.507 C 127.850 227.060,124.800 231.560,121.501 236.507 C 118.201 241.453,115.154 245.950,114.728 246.500 C 114.303 247.050,111.034 251.325,107.464 256.000 C 103.894 260.675,99.742 266.024,98.237 267.887 C 96.732 269.749,95.086 271.999,94.579 272.887 C 94.073 273.774,90.680 277.875,87.039 282.000 C 83.398 286.125,78.637 291.745,76.459 294.488 C 61.112 313.824,51.803 321.519,37.696 326.527 C 33.434 328.040,29.703 329.671,29.407 330.150 C 29.111 330.630,32.216 332.590,36.307 334.506 C 40.399 336.421,44.291 338.646,44.958 339.449 C 45.624 340.252,48.044 342.016,50.335 343.370 C 52.626 344.723,58.852 350.481,64.172 356.165 C 77.245 370.135,78.197 371.201,80.500 374.439 C 81.600 375.986,83.400 378.436,84.500 379.884 C 88.855 385.616,93.334 394.576,99.805 410.500 C 107.617 429.729,109.381 436.301,109.329 446.000 C 109.242 462.522,107.713 475.565,105.306 480.318 C 103.323 484.232,104.081 485.508,107.024 483.209 C 108.386 482.146,110.625 480.935,112.000 480.519 C 113.375 480.104,115.329 479.029,116.342 478.132 C 118.568 476.159,125.563 472.074,132.918 468.452 C 135.897 466.984,141.511 463.807,145.392 461.391 C 149.273 458.976,152.985 457.000,153.641 457.000 C 154.297 457.000,154.983 456.602,155.167 456.115 C 155.696 454.710,173.587 447.530,184.000 444.544 C 189.225 443.045,197.974 440.466,203.442 438.813 C 208.910 437.159,214.658 435.645,216.215 435.447 C 217.773 435.250,219.412 434.864,219.858 434.588 C 220.608 434.124,222.543 433.726,229.750 432.552 C 231.262 432.306,236.550 431.431,241.500 430.608 C 253.943 428.540,256.622 428.157,263.500 427.466 C 266.800 427.134,270.850 426.665,272.500 426.425 C 274.150 426.184,284.050 425.772,294.500 425.509 C 312.848 425.048,316.603 425.380,328.500 428.515 C 333.672 429.878,346.577 430.190,353.223 429.113 C 357.225 428.464,361.400 427.801,362.500 427.639 C 366.443 427.059,373.529 424.630,375.079 423.327 C 375.947 422.597,377.122 422.000,377.689 422.000 C 380.222 422.000,386.439 414.328,390.394 406.322 L 394.711 397.583 397.504 402.041 C 403.266 411.239,417.016 426.506,428.426 436.374 C 431.686 439.193,436.736 443.750,439.648 446.500 C 446.495 452.965,449.494 455.210,455.000 457.994 C 457.475 459.245,459.725 460.567,460.000 460.932 C 460.275 461.297,462.654 462.841,465.288 464.362 L 470.075 467.128 472.004 464.814 C 473.065 463.541,473.948 462.228,473.967 461.896 C 473.985 461.564,475.013 460.166,476.250 458.789 C 477.488 457.412,479.175 455.250,480.000 453.985 C 480.825 452.720,482.738 450.233,484.250 448.460 C 485.762 446.687,487.000 444.881,487.000 444.447 C 487.000 444.013,487.647 442.943,488.437 442.069 C 489.228 441.195,493.787 432.835,498.568 423.490 C 503.350 414.146,507.878 405.612,508.631 404.527 C 509.384 403.443,510.010 401.868,510.022 401.027 C 510.034 400.187,510.924 398.375,512.000 397.000 C 513.076 395.625,513.966 393.817,513.978 392.982 C 513.990 392.147,515.141 389.785,516.536 387.732 C 517.931 385.679,518.823 384.000,518.519 384.000 C 518.215 384.000,519.059 381.845,520.393 379.210 C 524.445 371.215,534.655 346.587,535.493 342.787 C 535.701 341.845,536.545 339.595,537.368 337.787 C 538.191 335.979,539.555 332.475,540.398 330.000 C 541.241 327.525,543.315 321.675,545.007 317.000 C 546.698 312.325,548.257 307.742,548.471 306.815 C 548.685 305.888,549.357 304.201,549.965 303.065 C 550.573 301.929,550.868 301.000,550.621 301.000 C 550.374 301.000,551.077 298.637,552.183 295.750 C 553.289 292.863,554.543 288.925,554.971 287.000 C 555.399 285.075,556.018 282.825,556.346 282.000 C 556.674 281.175,557.172 279.375,557.453 278.000 C 557.735 276.625,559.072 271.098,560.426 265.717 C 563.047 255.300,563.297 253.948,564.909 241.500 C 567.339 222.730,567.330 222.588,563.376 217.810 C 559.108 212.652,555.556 209.421,545.530 201.573 C 542.764 199.408,540.275 197.376,540.000 197.059 C 539.725 196.742,537.816 195.361,535.757 193.991 C 533.698 192.621,532.011 191.172,532.007 190.770 C 532.003 190.369,530.134 189.089,527.854 187.926 C 525.574 186.762,522.541 184.728,521.114 183.405 C 519.688 182.082,518.066 180.998,517.510 180.996 C 516.955 180.994,514.925 180.003,513.000 178.794 C 511.075 177.585,509.275 176.551,509.000 176.498 C 508.725 176.445,503.596 174.061,497.603 171.201 C 491.609 168.340,486.358 166.000,485.934 166.000 C 485.509 166.000,483.888 165.367,482.331 164.593 C 477.670 162.275,474.673 161.191,471.374 160.631 C 469.655 160.339,466.214 158.727,463.729 157.050 C 461.243 155.372,458.908 154.000,458.538 154.000 C 458.169 154.000,456.392 152.875,454.589 151.500 C 452.786 150.125,450.566 149.000,449.656 149.000 C 448.745 149.000,448.000 148.550,448.000 148.000 C 448.000 147.450,447.473 147.000,446.830 147.000 C 446.186 147.000,442.699 145.702,439.080 144.116 C 420.801 136.106,408.843 132.958,387.000 130.407 C 383.975 130.054,381.225 129.605,380.889 129.410 C 380.554 129.214,379.954 129.380,379.556 129.777 M347.761 136.448 L 350.987 137.156 347.177 141.828 C 345.081 144.398,342.786 147.850,342.076 149.500 C 339.436 155.635,337.000 164.367,337.000 167.696 C 337.000 169.586,336.519 172.031,335.930 173.131 C 335.342 174.230,334.699 175.888,334.503 176.815 C 334.006 179.158,330.710 188.908,327.003 199.000 C 325.286 203.675,323.690 208.400,323.456 209.500 C 322.828 212.453,318.397 225.816,316.312 231.044 C 313.651 237.719,300.006 263.998,299.195 264.011 C 298.813 264.018,297.640 265.818,296.589 268.011 C 295.538 270.205,294.331 272.000,293.907 272.000 C 293.482 272.000,292.819 273.012,292.432 274.250 C 292.046 275.488,290.425 278.075,288.830 280.000 C 284.458 285.277,284.336 285.450,282.581 288.844 C 281.683 290.580,280.541 292.000,280.042 292.000 C 279.543 292.000,278.845 292.913,278.491 294.029 C 277.351 297.620,259.121 319.012,249.042 328.586 L 245.585 331.870 242.323 326.185 C 240.529 323.058,239.047 320.171,239.030 319.769 C 239.014 319.368,237.425 316.577,235.500 313.567 C 233.575 310.558,232.000 307.709,232.000 307.237 C 232.000 306.764,231.206 305.505,230.235 304.439 C 229.264 303.372,226.778 300.174,224.709 297.331 C 222.641 294.488,219.273 290.764,217.224 289.055 C 215.176 287.346,212.825 285.332,212.000 284.579 C 211.175 283.825,208.475 282.188,206.000 280.939 C 203.525 279.691,200.825 278.158,200.000 277.533 C 199.175 276.907,195.350 275.359,191.500 274.092 C 187.650 272.826,183.825 271.208,183.000 270.499 C 179.989 267.908,158.758 264.964,157.521 266.965 C 157.154 267.560,157.554 269.949,158.411 272.274 C 159.269 274.598,160.178 277.772,160.433 279.326 C 160.687 280.881,161.353 283.581,161.912 285.326 C 165.211 295.630,165.614 306.693,163.118 318.500 C 161.955 324.000,160.583 331.650,160.070 335.500 C 159.556 339.350,158.204 347.000,157.066 352.500 C 155.927 358.000,154.263 366.100,153.368 370.500 C 152.473 374.900,151.124 381.040,150.370 384.144 C 149.617 387.249,149.000 390.935,149.000 392.335 C 149.000 393.736,148.543 395.165,147.984 395.510 C 147.425 395.856,147.207 396.526,147.500 397.000 C 148.009 397.823,147.041 400.461,142.872 409.610 C 141.843 411.870,141.000 413.995,141.000 414.332 C 141.000 415.856,126.956 445.992,125.273 448.079 C 124.573 448.947,124.000 450.199,124.000 450.860 C 124.000 451.522,121.987 455.063,119.527 458.730 L 115.055 465.397 115.611 453.760 C 115.964 446.367,115.727 440.003,114.960 436.311 C 114.295 433.115,113.675 430.050,113.581 429.500 C 113.191 427.229,107.572 412.601,103.977 404.500 C 103.001 402.300,100.710 397.125,98.887 393.000 C 96.074 386.636,89.783 375.688,87.968 374.000 C 87.673 373.725,86.430 372.196,85.206 370.602 C 76.976 359.888,59.129 341.878,53.250 338.356 C 50.912 336.956,49.000 335.457,49.000 335.026 C 49.000 334.595,47.643 333.680,45.984 332.993 C 43.589 332.001,43.202 331.461,44.106 330.372 C 44.733 329.617,46.090 329.000,47.122 329.000 C 48.155 329.000,49.000 328.550,49.000 328.000 C 49.000 327.450,49.594 327.000,50.319 327.000 C 53.187 327.000,68.851 313.562,71.654 308.697 C 72.119 307.889,74.750 304.791,77.500 301.811 C 80.250 298.831,84.300 294.203,86.500 291.526 C 88.700 288.849,92.235 284.628,94.356 282.146 C 96.477 279.664,100.077 275.129,102.356 272.067 C 104.635 269.005,108.438 264.025,110.807 261.000 C 116.493 253.739,117.592 252.236,120.672 247.500 C 124.642 241.398,132.053 230.811,134.402 227.889 C 135.556 226.453,137.175 224.238,138.000 222.966 C 139.503 220.649,144.318 214.917,149.000 209.871 C 150.375 208.389,152.005 206.575,152.622 205.838 C 155.968 201.846,169.326 190.000,170.482 190.000 C 171.225 190.000,171.983 189.631,172.167 189.181 C 173.354 186.261,204.998 168.321,219.500 162.345 C 222.800 160.985,227.408 159.001,229.739 157.936 C 232.071 156.871,234.478 156.000,235.088 156.000 C 235.698 156.000,237.616 155.343,239.349 154.540 C 241.947 153.336,265.947 146.085,272.640 144.482 C 277.937 143.213,288.457 140.951,291.283 140.472 C 293.053 140.173,295.175 139.746,296.000 139.522 C 307.624 136.377,338.965 134.516,347.761 136.448 M392.000 136.681 C 402.899 138.209,414.042 140.545,417.500 142.027 C 418.600 142.498,421.030 143.185,422.900 143.554 C 427.832 144.527,452.185 156.282,460.180 161.549 C 463.944 164.029,468.631 167.620,470.597 169.529 C 472.563 171.438,474.526 173.000,474.960 173.000 C 476.133 173.000,491.964 189.901,491.988 191.179 C 491.994 191.552,492.577 192.452,493.281 193.179 C 493.986 193.905,496.774 197.425,499.477 201.000 C 502.180 204.575,506.113 209.486,508.216 211.914 C 512.008 216.290,512.024 216.346,510.131 218.414 C 509.080 219.561,507.025 222.750,505.563 225.500 C 504.101 228.250,502.288 231.625,501.534 233.000 C 500.780 234.375,498.697 238.425,496.905 242.000 C 495.114 245.575,492.832 249.850,491.834 251.500 C 490.837 253.150,489.063 256.525,487.892 259.000 C 481.614 272.270,478.147 281.800,473.410 298.798 C 472.444 302.262,471.282 305.326,470.827 305.607 C 470.372 305.888,470.000 306.976,470.000 308.024 C 470.000 309.072,469.372 311.858,468.603 314.215 C 463.289 330.521,460.587 341.918,459.528 352.500 C 459.197 355.800,458.748 359.175,458.530 360.000 C 456.622 367.201,456.519 371.066,457.373 403.500 C 458.079 430.304,459.247 445.043,461.122 450.817 C 461.715 452.641,462.002 454.332,461.760 454.573 C 460.782 455.552,448.119 447.093,441.532 441.061 C 426.535 427.329,409.278 409.120,404.500 401.988 C 401.750 397.882,398.912 393.898,398.192 393.133 C 397.473 392.368,397.123 391.123,397.413 390.366 C 397.704 389.609,398.698 385.279,399.623 380.745 C 401.569 371.200,401.731 362.579,400.162 352.000 C 399.551 347.875,398.770 342.561,398.428 340.190 C 396.085 323.970,388.038 299.799,377.464 277.218 C 375.559 273.150,374.000 269.624,374.000 269.382 C 374.000 269.141,372.425 265.624,370.500 261.568 C 368.575 257.511,367.000 253.975,367.000 253.710 C 367.000 253.444,365.010 248.997,362.578 243.827 C 360.145 238.657,356.303 229.718,354.039 223.963 C 351.776 218.208,349.520 212.765,349.026 211.867 C 346.497 207.264,343.745 185.529,343.768 170.339 C 343.782 160.317,347.037 150.281,352.109 144.614 C 358.217 137.789,362.487 136.318,379.000 135.354 C 380.375 135.274,386.225 135.871,392.000 136.681 M489.033 173.517 C 491.765 174.901,494.000 175.799,494.000 175.511 C 494.000 174.759,511.164 183.887,513.250 185.749 C 514.212 186.607,515.007 186.903,515.015 186.405 C 515.024 185.907,515.361 185.956,515.765 186.514 C 516.169 187.071,519.192 189.321,522.482 191.514 C 528.358 195.429,535.727 201.006,543.357 207.312 C 545.479 209.065,547.954 210.912,548.857 211.415 C 549.761 211.918,552.791 214.697,555.591 217.589 C 561.201 223.385,561.087 222.812,559.556 237.500 C 558.071 251.737,557.737 253.424,552.465 273.250 C 552.209 274.212,551.794 275.936,551.542 277.080 C 551.290 278.224,550.858 279.911,550.581 280.830 C 550.305 281.748,549.861 283.625,549.596 285.000 C 549.330 286.375,547.497 292.225,545.522 298.000 C 543.548 303.775,541.235 310.750,540.383 313.500 C 539.532 316.250,538.228 319.850,537.486 321.500 C 536.744 323.150,535.858 325.625,535.517 327.000 C 534.817 329.822,531.532 338.068,529.409 342.331 C 528.634 343.888,528.000 345.764,528.000 346.500 C 528.000 347.236,527.369 349.112,526.598 350.669 C 525.826 352.226,523.977 356.425,522.487 360.000 C 517.056 373.031,511.565 384.839,503.651 400.500 C 489.121 429.254,482.428 442.019,480.952 443.794 C 480.153 444.754,478.243 447.383,476.706 449.636 C 475.170 451.890,472.838 454.743,471.525 455.977 L 469.136 458.220 468.104 454.360 C 464.829 442.113,464.071 435.000,463.426 410.500 C 463.151 400.050,462.743 387.675,462.519 383.000 C 462.295 378.325,462.513 371.800,463.003 368.500 C 463.493 365.200,464.164 360.475,464.495 358.000 C 466.031 346.501,468.846 332.818,471.490 324.000 C 472.398 320.975,473.977 315.575,475.001 312.000 C 476.025 308.425,477.624 303.475,478.555 301.000 C 479.486 298.525,481.052 293.575,482.035 290.000 C 484.296 281.779,489.900 267.837,495.099 257.500 C 500.952 245.862,507.733 233.092,510.496 228.500 C 511.820 226.300,513.447 223.488,514.112 222.250 C 514.777 221.012,515.699 220.000,516.161 220.000 C 517.526 220.000,517.117 213.171,515.700 212.300 C 514.985 211.860,513.315 209.925,511.989 208.000 C 510.663 206.075,507.411 201.800,504.763 198.500 C 502.115 195.200,499.623 192.045,499.224 191.490 C 496.445 187.613,489.968 179.872,486.792 176.632 C 483.349 173.121,482.122 171.000,483.533 171.000 C 483.827 171.000,486.302 172.133,489.033 173.517 M340.568 201.432 C 342.119 210.698,350.099 231.637,360.129 252.757 C 362.808 258.398,365.000 263.288,365.000 263.622 C 365.000 263.957,366.615 267.666,368.589 271.865 C 370.563 276.064,374.415 284.900,377.150 291.500 C 379.885 298.100,382.512 304.400,382.989 305.500 C 383.882 307.561,387.320 318.572,388.452 323.000 C 388.804 324.375,389.753 327.912,390.562 330.860 C 394.683 345.884,396.636 368.903,394.483 377.064 C 393.767 379.779,393.326 382.000,393.504 382.000 C 393.682 382.000,392.933 384.363,391.839 387.250 C 390.745 390.137,389.497 393.625,389.065 395.000 C 387.922 398.643,383.860 407.417,383.047 408.000 C 382.663 408.275,381.553 409.871,380.580 411.546 C 378.061 415.881,373.108 418.939,365.284 420.987 C 352.067 424.448,337.278 425.095,328.660 422.589 C 321.509 420.511,308.035 413.262,302.251 408.382 C 295.192 402.428,276.930 384.100,272.477 378.500 C 270.289 375.750,268.272 373.275,267.994 373.000 C 266.109 371.136,261.959 364.710,259.922 360.500 C 258.591 357.750,257.248 355.275,256.938 355.000 C 255.972 354.144,247.830 337.839,248.174 337.450 C 248.353 337.248,251.875 333.556,256.000 329.248 C 265.130 319.711,272.601 311.428,276.165 306.892 C 277.631 305.026,280.431 301.475,282.387 299.000 C 284.343 296.525,286.850 292.842,287.958 290.816 C 289.067 288.790,291.150 285.865,292.587 284.316 C 294.025 282.767,295.898 280.150,296.749 278.500 C 297.600 276.850,299.308 274.150,300.544 272.500 C 304.206 267.614,312.000 253.950,312.000 252.417 C 312.000 251.638,312.395 251.000,312.879 251.000 C 313.362 251.000,314.298 249.537,314.959 247.750 C 315.620 245.963,317.425 241.575,318.971 238.000 C 325.250 223.481,328.030 215.717,327.923 213.000 C 327.912 212.725,329.305 208.675,331.019 204.000 C 332.732 199.325,334.505 194.325,334.957 192.889 C 335.410 191.454,336.392 189.204,337.140 187.889 C 338.494 185.510,338.501 185.515,338.787 189.000 C 338.944 190.925,339.746 196.519,340.568 201.432 M172.812 274.424 C 192.546 280.416,198.443 282.519,201.266 284.571 C 203.045 285.863,206.075 287.796,208.000 288.868 C 213.961 292.186,226.423 307.768,231.699 318.500 C 232.780 320.700,235.333 325.551,237.372 329.281 C 239.411 333.011,240.842 336.447,240.551 336.918 C 240.260 337.388,240.690 338.328,241.507 339.006 C 242.324 339.684,244.642 343.672,246.658 347.869 C 256.517 368.397,270.018 386.843,285.466 400.893 C 287.648 402.877,291.049 406.075,293.025 408.000 C 295.001 409.925,298.503 412.799,300.808 414.386 C 303.114 415.973,305.000 417.661,305.000 418.136 C 305.000 418.611,301.962 419.052,298.250 419.115 C 284.133 419.354,274.376 419.785,271.000 420.317 C 269.075 420.620,262.775 421.388,257.000 422.022 C 251.225 422.657,244.700 423.642,242.500 424.211 C 240.300 424.779,236.475 425.418,234.000 425.630 C 229.894 425.981,225.987 426.795,213.000 430.008 C 210.525 430.620,206.700 431.560,204.500 432.096 C 180.966 437.834,156.057 447.499,140.747 456.835 C 131.546 462.445,122.034 467.367,121.475 466.809 C 121.206 466.539,122.322 464.476,123.954 462.222 C 127.155 457.804,137.339 437.947,140.993 429.000 C 142.228 425.975,143.938 421.925,144.791 420.000 C 146.263 416.681,147.366 413.893,151.978 401.825 C 153.066 398.978,154.213 394.816,154.528 392.575 C 154.843 390.334,155.347 387.668,155.649 386.650 C 155.951 385.633,156.306 383.820,156.437 382.621 C 156.569 381.422,157.424 377.191,158.338 373.220 C 160.784 362.592,162.720 353.278,163.893 346.500 C 164.464 343.200,165.841 335.550,166.954 329.500 C 168.067 323.450,169.390 315.526,169.894 311.890 C 170.916 304.509,169.795 291.158,167.551 284.000 C 166.776 281.525,165.848 278.038,165.491 276.250 C 164.727 272.431,165.564 272.223,172.812 274.424 " stroke="none" fill="black" fill-rule="evenodd"></path></svg></g></g><defs><clipPath id="SvgjsClipPath1069"><rect width="1000" height="1000" x="0" y="0" rx="350" ry="350"></rect></clipPath></defs></svg>