<svg xmlns="http://www.w3.org/2000/svg" version="1.1" xmlns:xlink="http://www.w3.org/1999/xlink" width="1000" height="1000"><g clip-path="url(#SvgjsClipPath1009)"><rect width="1000" height="1000" fill="#f0eeeb"></rect><g transform="matrix(1.1666666666666667,0,0,1.1666666666666667,150,150)"><svg xmlns="http://www.w3.org/2000/svg" version="1.1" id="svg" width="600" height="600"><path d="M311.000 125.717 C 277.501 129.978,239.119 140.927,209.500 154.673 C 179.947 168.388,162.982 179.701,145.833 197.129 C 134.054 209.100,130.301 213.786,116.421 233.853 C 105.419 249.759,91.423 268.235,81.500 279.952 C 56.242 309.777,49.363 316.272,39.081 320.013 C 29.027 323.671,26.249 325.166,24.932 327.627 C 22.574 332.033,24.656 335.026,33.189 339.496 C 45.594 345.994,52.172 351.246,63.873 363.995 C 78.637 380.082,88.284 394.027,90.355 402.278 C 90.702 403.660,92.515 408.101,94.385 412.146 C 96.255 416.191,99.250 423.932,101.042 429.350 L 104.299 439.199 103.619 453.850 C 102.932 468.677,102.454 471.697,99.439 480.246 C 97.886 484.651,97.884 485.173,99.406 487.496 C 102.402 492.069,104.137 491.481,127.418 478.000 C 166.386 455.435,165.899 455.649,202.000 445.180 C 222.281 439.298,241.365 435.660,268.397 432.520 C 285.580 430.525,318.079 431.055,326.000 433.460 C 334.185 435.945,345.561 436.138,357.843 434.000 C 376.663 430.725,384.565 426.542,391.242 416.319 L 395.500 409.799 399.994 415.150 C 412.447 429.976,441.652 457.182,449.500 461.266 C 451.150 462.125,455.629 464.891,459.453 467.414 C 466.132 471.819,469.006 472.702,472.414 471.395 C 475.017 470.396,490.671 449.597,495.868 440.233 C 501.135 430.743,520.553 392.269,526.425 379.687 C 534.138 363.163,547.764 326.975,556.996 298.500 C 558.779 293.000,560.607 287.375,561.058 286.000 C 565.795 271.562,572.000 236.758,572.000 224.623 C 572.000 216.510,562.562 206.684,536.500 187.666 C 531.550 184.054,526.294 180.168,524.820 179.031 C 518.460 174.125,482.256 157.307,474.304 155.565 C 472.546 155.180,467.415 152.622,462.902 149.881 C 443.985 138.391,422.509 130.433,399.540 126.402 C 387.233 124.242,326.304 123.771,311.000 125.717 M339.000 141.612 C 339.000 141.948,337.477 146.336,335.616 151.362 C 333.755 156.388,331.917 162.750,331.532 165.500 C 330.750 171.087,328.155 179.781,323.921 191.000 C 322.364 195.125,319.465 203.900,317.479 210.500 C 313.363 224.174,310.996 230.003,303.270 245.500 C 292.618 266.864,263.912 306.682,249.610 319.931 C 247.041 322.311,246.954 322.321,245.525 320.431 C 244.721 319.369,244.049 318.202,244.032 317.838 C 243.960 316.342,235.231 302.015,230.342 295.369 C 227.457 291.446,222.711 286.199,219.794 283.707 C 213.795 278.582,202.473 271.921,196.500 270.003 C 194.300 269.297,189.800 267.456,186.500 265.914 C 175.759 260.893,158.172 259.328,154.189 263.039 C 151.623 265.429,151.304 270.286,153.388 275.216 C 158.078 286.309,160.165 304.578,158.046 316.000 C 156.113 326.426,153.905 338.535,152.531 346.250 C 151.722 350.788,149.732 360.800,148.107 368.500 C 146.482 376.200,144.624 385.200,143.978 388.500 C 142.866 394.175,140.401 401.811,137.522 408.500 C 131.164 423.270,129.301 427.500,126.182 434.250 C 124.211 438.513,122.240 442.000,121.800 442.000 C 121.360 442.000,121.000 440.672,121.000 439.049 C 121.000 433.374,116.958 420.690,109.955 404.395 C 101.885 385.613,99.216 380.469,93.164 372.033 C 86.083 362.164,62.136 336.639,57.903 334.450 C 56.306 333.624,55.000 332.588,55.000 332.148 C 55.000 331.707,57.718 329.377,61.041 326.970 C 64.363 324.563,70.551 318.576,74.791 313.664 C 79.031 308.753,86.231 300.407,90.791 295.117 C 103.787 280.041,121.018 257.077,142.034 226.820 C 148.682 217.249,168.578 197.833,179.000 190.746 C 195.550 179.492,221.437 166.655,242.000 159.506 C 263.712 151.957,298.383 143.834,318.000 141.701 C 324.094 141.038,339.000 140.975,339.000 141.612 M396.514 143.002 C 411.150 145.505,421.526 148.647,435.544 154.821 C 460.758 165.928,474.493 177.431,495.935 205.401 C 502.975 214.583,504.117 216.584,503.178 218.086 C 499.805 223.488,481.000 260.034,481.000 261.188 C 481.000 261.940,480.379 263.443,479.620 264.527 C 478.861 265.612,477.022 269.875,475.534 274.000 C 472.955 281.146,471.912 284.447,468.268 297.000 C 467.390 300.025,466.355 302.950,465.968 303.500 C 464.786 305.177,456.228 337.072,455.101 344.000 C 451.177 368.104,450.943 372.650,452.012 404.000 C 452.585 420.775,453.317 436.704,453.639 439.398 L 454.225 444.296 451.044 442.031 C 443.840 436.902,413.143 405.237,408.160 397.796 L 403.001 390.092 404.514 384.296 C 405.346 381.108,406.299 375.575,406.631 372.000 C 407.834 359.061,403.397 331.705,396.656 310.500 C 392.437 297.228,391.682 295.348,383.112 276.747 C 381.400 273.033,380.000 269.791,380.000 269.542 C 380.000 269.124,367.936 242.089,362.578 230.500 C 353.293 210.415,349.999 195.937,349.723 174.000 C 349.564 161.362,349.718 160.149,352.147 155.000 C 355.765 147.331,359.727 143.911,366.742 142.405 C 375.195 140.589,383.353 140.752,396.514 143.002 M515.508 193.752 C 530.825 204.080,538.578 210.005,550.250 220.299 C 555.734 225.137,555.674 224.732,553.461 241.699 C 551.787 254.534,545.734 279.633,540.486 295.500 C 532.873 318.520,524.241 342.346,520.560 350.500 C 519.815 352.150,518.190 355.975,516.949 359.000 C 508.264 380.167,480.116 436.332,475.359 441.985 C 473.961 443.646,472.460 444.784,472.023 444.514 C 470.299 443.449,468.945 423.100,468.728 395.000 C 468.509 366.605,468.604 364.919,471.278 350.000 C 473.930 335.206,477.550 321.393,482.599 306.808 C 483.873 303.127,485.650 297.277,486.548 293.808 C 487.446 290.339,488.997 285.700,489.993 283.500 C 490.989 281.300,493.425 275.344,495.405 270.265 C 497.385 265.186,501.479 256.639,504.503 251.272 C 507.526 245.905,510.000 241.206,510.000 240.830 C 510.000 240.454,512.321 236.401,515.157 231.823 C 517.994 227.246,520.968 222.229,521.767 220.676 C 524.454 215.453,522.608 211.669,509.483 195.500 C 502.554 186.963,502.577 187.000,504.128 187.002 C 504.882 187.002,510.004 190.040,515.508 193.752 M337.527 213.121 C 337.901 214.825,339.333 218.758,340.709 221.860 C 342.085 224.962,345.147 232.225,347.512 238.000 C 349.877 243.775,353.879 252.905,356.406 258.288 C 358.933 263.672,361.000 268.267,361.000 268.500 C 361.000 268.733,362.533 272.203,364.406 276.212 C 378.809 307.030,385.810 328.774,388.594 351.334 C 390.601 367.596,390.011 375.770,385.994 387.359 C 379.083 407.297,374.119 413.396,362.728 415.949 C 351.722 418.415,340.152 419.058,333.129 417.594 C 318.832 414.613,308.030 407.282,288.000 386.966 C 272.746 371.494,268.782 366.002,258.429 345.996 L 254.828 339.037 266.164 326.686 C 282.027 309.403,285.641 304.665,304.529 276.400 C 316.619 258.309,327.717 234.874,333.029 216.222 C 335.182 208.662,336.368 207.844,337.527 213.121 M186.362 284.466 C 197.257 288.272,207.105 294.160,212.425 300.049 C 217.728 305.919,225.000 317.411,230.426 328.500 C 233.117 334.000,235.790 339.400,236.366 340.500 C 254.315 374.800,259.938 382.973,278.219 401.332 C 284.698 407.839,290.000 413.282,290.000 413.427 C 290.000 413.572,284.262 413.973,277.250 414.317 C 262.589 415.036,252.372 416.450,224.500 421.619 C 205.667 425.112,164.137 437.848,153.105 443.513 C 149.472 445.378,144.137 448.285,141.250 449.973 C 138.363 451.660,136.000 452.796,136.000 452.498 C 136.000 452.200,137.782 448.411,139.960 444.079 C 149.939 424.231,158.972 400.354,160.986 388.500 C 161.640 384.650,163.673 374.750,165.503 366.500 C 167.334 358.250,169.825 345.650,171.039 338.500 C 172.253 331.350,173.665 323.475,174.177 321.000 C 176.077 311.815,176.266 297.826,174.599 289.792 C 173.720 285.553,173.000 281.840,173.000 281.542 C 173.000 280.322,177.020 281.202,186.362 284.466 " stroke="none" fill="black" fill-rule="evenodd"></path></svg></g></g><defs><clipPath id="SvgjsClipPath1009"><rect width="1000" height="1000" x="0" y="0" rx="350" ry="350"></rect></clipPath></defs></svg>