<svg xmlns="http://www.w3.org/2000/svg" version="1.1" xmlns:xlink="http://www.w3.org/1999/xlink" width="1000" height="1000"><g clip-path="url(#SvgjsClipPath1021)"><rect width="1000" height="1000" fill="#f0eeeb"></rect><g transform="matrix(1.6666666666666667,0,0,1.6666666666666667,0,0)"><svg xmlns="http://www.w3.org/2000/svg" version="1.1" id="svg" width="600" height="600"><path d="M287.000 116.953 C 277.375 118.991,264.550 121.435,258.500 122.385 C 252.450 123.334,243.752 124.986,239.171 126.055 C 234.590 127.125,229.723 128.000,228.355 128.000 C 224.762 128.000,222.058 129.731,220.843 132.811 C 220.260 134.290,211.492 160.250,201.359 190.500 C 173.547 273.531,169.867 284.000,168.492 284.000 C 167.805 284.000,166.695 282.538,166.025 280.750 C 165.356 278.962,163.487 274.212,161.871 270.194 C 160.256 266.176,157.636 258.976,156.049 254.194 C 149.747 235.205,143.778 219.412,142.274 217.750 C 141.403 216.787,139.473 216.000,137.985 216.000 C 135.787 216.000,134.646 217.026,131.890 221.484 C 130.026 224.500,123.134 234.287,116.576 243.234 C 110.018 252.180,101.243 264.176,97.076 269.890 C 92.909 275.605,87.588 282.482,85.250 285.173 C 82.832 287.958,81.000 291.084,81.000 292.428 C 81.000 293.727,84.539 301.024,88.863 308.645 C 113.756 352.506,118.182 360.375,122.862 369.100 C 125.694 374.380,128.796 379.397,129.755 380.249 C 130.990 381.346,136.323 382.264,148.000 383.390 C 157.075 384.265,171.700 385.679,180.500 386.531 C 197.538 388.182,215.599 390.634,216.970 391.481 C 217.427 391.764,221.599 398.408,226.242 406.247 C 236.693 423.892,251.112 448.420,253.554 452.708 C 254.559 454.472,256.533 456.362,257.941 456.907 C 259.348 457.453,268.825 458.405,279.000 459.023 C 289.175 459.642,304.025 460.788,312.000 461.571 C 338.194 464.144,342.000 463.435,342.000 455.980 C 342.000 453.832,341.057 449.695,339.904 446.787 C 337.942 441.837,335.709 435.756,325.883 408.613 C 321.956 397.766,321.623 394.638,324.818 398.631 C 326.665 400.938,327.299 401.759,343.990 423.477 C 359.383 443.507,363.147 447.406,366.164 446.448 C 369.654 445.340,370.702 443.363,373.026 433.500 C 374.193 428.550,376.913 417.075,379.071 408.000 C 381.229 398.925,383.953 387.450,385.125 382.500 C 389.009 366.094,390.049 362.918,391.753 362.265 C 392.671 361.912,399.514 362.623,406.961 363.844 C 414.407 365.065,425.225 366.719,431.000 367.520 C 436.775 368.321,446.644 369.870,452.931 370.963 C 459.218 372.055,467.617 373.244,471.596 373.605 C 478.392 374.221,478.980 374.111,481.301 371.789 C 482.989 370.102,485.532 363.954,489.320 352.409 C 492.371 343.109,498.328 325.375,502.557 313.000 C 507.032 299.907,510.253 288.836,510.260 286.520 C 510.274 281.981,509.708 281.396,484.500 259.921 C 476.800 253.362,464.650 243.001,457.500 236.897 C 433.063 216.036,433.017 216.000,430.171 216.000 C 427.096 216.000,424.514 217.572,417.958 223.437 C 357.861 277.194,355.000 279.908,355.000 283.163 C 355.000 284.376,357.730 293.655,361.067 303.784 C 364.404 313.912,366.938 322.395,366.699 322.634 C 366.029 323.304,356.701 312.777,348.312 301.884 C 342.884 294.836,339.878 291.799,337.629 291.095 C 335.908 290.556,328.425 289.845,321.000 289.517 C 305.255 288.820,300.397 288.191,301.620 287.011 C 302.357 286.300,323.286 280.940,334.774 278.520 C 339.852 277.451,344.020 273.204,347.525 265.528 C 349.290 261.663,356.004 247.925,362.445 235.000 C 368.886 222.075,375.280 208.843,376.655 205.597 C 379.053 199.932,379.091 199.527,377.586 195.597 C 376.724 193.343,368.927 180.626,360.259 167.336 C 351.592 154.046,341.663 138.681,338.196 133.192 C 331.182 122.089,329.260 119.971,325.975 119.723 C 323.245 119.518,322.934 119.935,312.680 137.562 C 308.181 145.296,303.502 152.946,302.282 154.562 C 300.370 157.094,300.061 157.224,300.047 155.500 C 300.037 154.400,302.309 146.300,305.096 137.500 C 311.750 116.481,311.558 117.558,309.098 115.098 C 306.576 112.576,308.392 112.423,287.000 116.953 M296.000 128.810 C 296.000 131.458,276.428 192.809,275.137 194.208 C 274.777 194.598,273.992 194.598,273.392 194.208 C 271.842 193.203,236.779 141.870,236.243 139.823 C 235.685 137.688,237.698 137.133,262.723 132.522 C 273.296 130.574,283.646 128.580,285.723 128.090 C 292.393 126.520,296.000 126.772,296.000 128.810 M337.692 152.750 C 357.174 182.584,363.112 192.266,362.656 193.455 C 362.353 194.245,357.335 195.086,348.344 195.854 C 340.730 196.505,327.750 197.670,319.500 198.444 C 295.354 200.710,289.479 200.799,289.615 198.895 C 289.819 196.042,325.074 138.000,326.604 138.000 C 327.405 138.000,332.395 144.637,337.692 152.750 M233.554 155.750 C 236.078 159.463,243.974 171.036,251.102 181.469 C 258.230 191.902,263.932 201.113,263.773 201.939 C 263.564 203.024,258.221 204.608,244.492 207.654 C 234.046 209.971,221.299 212.848,216.164 214.048 C 210.365 215.402,206.474 215.874,205.892 215.292 C 205.311 214.711,205.912 211.542,207.478 206.928 C 208.866 202.843,213.623 188.509,218.050 175.075 C 222.477 161.641,226.328 150.278,226.608 149.825 C 227.711 148.040,229.146 149.264,233.554 155.750 M363.000 207.414 C 363.000 210.099,336.870 262.000,335.518 262.000 C 334.309 262.000,322.504 249.921,297.542 223.141 C 292.619 217.860,289.196 213.404,289.685 212.915 C 290.162 212.438,295.490 211.609,301.526 211.073 C 307.562 210.537,317.900 209.574,324.500 208.932 C 359.200 205.561,363.000 205.411,363.000 207.414 M268.000 216.475 C 268.000 217.286,265.559 225.498,262.576 234.725 C 259.593 243.951,255.505 256.675,253.491 263.000 C 251.477 269.325,249.378 274.950,248.825 275.500 C 247.684 276.636,241.230 269.996,226.116 252.137 C 213.567 237.308,208.000 230.216,208.000 229.057 C 208.000 227.495,209.418 227.027,223.730 223.862 C 231.303 222.187,243.125 219.567,250.000 218.039 C 264.931 214.720,268.000 214.453,268.000 216.475 M291.437 232.750 C 312.866 255.375,323.000 266.815,323.000 268.378 C 323.000 269.270,322.798 270.000,322.552 270.000 C 322.306 270.000,315.218 271.605,306.802 273.568 C 268.523 282.493,261.572 283.890,260.377 282.898 C 259.458 282.135,259.845 279.854,262.021 273.200 C 263.586 268.415,267.223 256.850,270.105 247.500 C 276.136 227.928,278.457 222.000,280.092 222.000 C 280.732 222.000,285.837 226.838,291.437 232.750 M425.364 238.640 C 425.714 241.191,426.000 253.805,426.000 266.671 C 426.000 286.810,425.786 290.145,424.460 290.654 C 422.739 291.314,417.912 290.479,394.000 285.380 C 373.509 281.011,374.000 281.157,374.000 279.461 C 374.000 278.689,381.963 270.957,391.695 262.278 C 401.428 253.600,412.340 243.696,415.945 240.268 C 419.550 236.840,423.001 234.028,423.614 234.018 C 424.227 234.008,425.014 236.088,425.364 238.640 M138.476 237.750 C 138.856 238.713,141.632 246.250,144.645 254.500 C 147.658 262.750,152.120 274.773,154.561 281.217 C 157.003 287.661,159.000 293.399,159.000 293.967 C 159.000 295.300,150.794 295.295,143.886 293.957 C 140.924 293.383,134.225 292.500,129.000 291.993 C 120.104 291.131,109.765 289.769,102.250 288.471 C 97.004 287.565,95.917 289.487,120.870 255.546 C 128.773 244.796,135.813 236.000,136.513 236.000 C 137.213 236.000,138.097 236.787,138.476 237.750 M453.500 248.046 C 461.200 254.667,472.453 264.275,478.507 269.397 C 491.676 280.539,492.880 281.838,491.071 282.956 C 490.356 283.398,487.910 284.028,485.636 284.356 C 483.361 284.683,475.425 285.865,468.000 286.982 C 439.418 291.282,438.829 291.338,437.895 289.864 C 437.420 289.114,437.024 276.688,437.015 262.250 C 437.003 241.906,437.281 236.001,438.250 236.004 C 438.938 236.006,445.800 241.425,453.500 248.046 M203.727 242.753 C 208.582 248.869,228.053 271.805,234.388 278.873 C 238.784 283.777,239.106 284.449,237.593 285.556 C 236.667 286.233,233.793 287.086,231.205 287.453 C 228.617 287.819,218.625 289.394,209.000 290.952 C 184.810 294.868,180.059 295.318,179.456 293.747 C 179.187 293.044,181.695 284.376,185.031 274.485 C 188.367 264.593,191.767 254.250,192.586 251.500 C 195.444 241.913,197.175 238.000,198.559 238.000 C 199.326 238.000,201.651 240.139,203.727 242.753 M393.184 296.514 C 418.085 301.567,420.000 302.062,420.000 303.451 C 420.000 304.798,419.684 305.234,404.245 325.223 C 389.741 344.002,389.409 344.371,387.652 343.697 C 386.803 343.371,385.459 340.943,384.666 338.302 C 383.872 335.661,380.248 325.053,376.611 314.730 C 372.975 304.406,370.000 295.294,370.000 294.480 C 370.000 292.255,373.871 292.595,393.184 296.514 M496.000 296.145 C 496.000 297.380,480.766 343.031,478.264 349.292 C 475.887 355.242,478.023 357.671,453.097 320.670 C 445.465 309.341,442.090 303.510,442.769 302.831 C 443.823 301.777,485.711 295.214,492.250 295.078 C 494.446 295.032,496.000 295.475,496.000 296.145 M240.489 298.982 C 241.181 300.102,239.424 306.340,230.482 334.500 C 226.989 345.500,223.183 357.762,222.023 361.750 C 220.752 366.121,219.380 369.000,218.568 369.000 C 217.826 369.000,212.669 361.462,207.108 352.250 C 201.546 343.038,194.542 331.675,191.544 327.000 C 188.546 322.325,184.898 316.280,183.437 313.567 C 180.972 308.988,180.903 308.544,182.487 307.386 C 183.425 306.700,187.071 305.830,190.589 305.454 C 194.106 305.077,206.100 303.301,217.242 301.506 C 241.630 297.578,239.748 297.783,240.489 298.982 M305.448 300.080 C 315.869 300.655,324.775 301.361,325.238 301.647 C 326.439 302.389,325.872 303.948,315.289 329.000 C 306.000 350.989,304.523 354.000,303.019 354.000 C 302.219 354.000,286.294 331.677,269.260 306.679 C 263.523 298.260,263.955 297.804,277.000 298.515 C 282.225 298.800,295.026 299.504,305.448 300.080 M118.000 302.020 C 121.575 302.562,131.880 303.920,140.900 305.037 C 157.488 307.090,159.000 307.421,159.000 308.990 C 159.000 310.727,135.723 358.549,133.995 360.362 C 131.981 362.475,133.423 364.622,115.291 332.500 C 100.628 306.523,97.960 301.374,98.751 300.571 C 99.531 299.779,106.878 300.331,118.000 302.020 M265.500 321.020 C 271.550 329.803,280.495 342.649,285.378 349.566 C 291.547 358.305,293.938 362.462,293.213 363.187 C 292.639 363.761,284.818 365.709,275.834 367.515 C 266.850 369.322,253.770 371.970,246.766 373.400 C 239.763 374.830,233.294 376.000,232.391 376.000 C 229.909 376.000,229.693 376.806,247.631 319.250 C 250.172 311.096,252.591 305.011,253.286 305.025 C 253.954 305.039,259.450 312.236,265.500 321.020 M343.787 314.250 C 346.520 317.688,353.998 327.024,360.404 334.997 C 366.810 342.970,371.924 350.170,371.768 350.997 C 371.460 352.633,363.228 354.475,343.000 357.435 C 336.675 358.360,328.213 359.607,324.196 360.205 C 313.213 361.839,313.231 361.906,320.279 345.500 C 322.170 341.100,326.565 330.863,330.047 322.750 C 333.528 314.637,336.926 308.000,337.597 308.000 C 338.268 308.000,341.054 310.813,343.787 314.250 M433.674 312.250 C 434.786 313.488,440.377 321.346,446.098 329.713 C 451.819 338.079,458.613 347.979,461.196 351.713 C 466.458 359.316,466.948 361.000,463.900 361.000 C 461.853 361.000,445.137 358.441,428.000 355.503 C 423.325 354.702,415.762 353.504,411.192 352.841 C 398.213 350.959,398.243 351.481,410.215 335.955 C 428.221 312.603,430.305 310.000,430.986 310.000 C 431.352 310.000,432.561 311.012,433.674 312.250 M181.706 333.593 C 187.643 343.270,195.481 356.012,199.124 361.909 C 206.789 374.316,207.702 376.517,205.530 377.350 C 204.688 377.673,203.438 377.739,202.750 377.497 C 201.317 376.992,176.379 374.282,161.361 372.999 C 149.378 371.975,144.170 371.083,143.460 369.935 C 143.175 369.474,145.576 363.562,148.796 356.798 C 164.858 323.056,168.462 316.000,169.636 316.000 C 170.337 316.000,175.769 323.917,181.706 333.593 M377.000 366.770 C 377.000 368.294,376.107 372.762,375.016 376.699 C 373.925 380.636,371.676 390.077,370.018 397.679 C 364.534 422.819,363.510 426.500,362.001 426.500 C 360.616 426.500,358.439 423.874,340.203 400.202 C 335.416 393.988,329.147 385.888,326.270 382.202 C 319.911 374.052,319.671 372.375,324.750 371.614 C 326.813 371.305,334.125 370.156,341.000 369.061 C 347.875 367.965,357.324 366.567,361.998 365.953 C 366.672 365.339,370.685 364.648,370.915 364.418 C 371.145 364.188,372.608 364.000,374.167 364.000 C 376.596 364.000,377.000 364.395,377.000 366.770 M292.000 377.588 C 292.000 377.911,290.486 380.948,288.635 384.338 C 286.784 387.727,279.762 401.188,273.030 414.250 C 266.299 427.313,260.223 438.000,259.529 438.000 C 258.834 438.000,256.251 434.512,253.789 430.250 C 251.326 425.988,247.051 418.675,244.288 414.000 C 232.662 394.331,230.827 390.893,231.297 389.668 C 231.589 388.909,238.299 387.016,247.646 385.056 C 256.366 383.228,268.225 380.706,274.000 379.451 C 284.281 377.217,292.000 376.418,292.000 377.588 M312.812 406.083 C 323.758 434.286,328.325 447.710,327.610 449.573 C 327.187 450.677,326.130 450.945,323.763 450.548 C 321.968 450.247,313.075 449.550,304.000 449.000 C 271.582 447.034,271.000 446.959,271.000 444.737 C 271.000 442.960,294.946 395.473,300.025 387.177 C 301.144 385.349,302.609 384.036,303.280 384.259 C 303.951 384.483,308.240 394.303,312.812 406.083 " stroke="none" fill="black" fill-rule="evenodd"></path></svg></g></g><defs><clipPath id="SvgjsClipPath1021"><rect width="1000" height="1000" x="0" y="0" rx="350" ry="350"></rect></clipPath></defs></svg>