<svg id="svg" version="1.1" width="600" height="600" xmlns="http://www.w3.org/2000/svg"><path d="M224.379 117.456 C 224.071 118.257,228.332 129.394,233.846 142.206 C 241.906 160.932,244.278 165.563,245.941 165.820 C 249.394 166.355,249.419 163.340,246.027 155.211 C 237.678 135.202,229.631 117.431,228.618 116.765 C 226.823 115.586,224.981 115.886,224.379 117.456 M371.144 117.750 C 370.143 119.641,356.130 155.056,353.910 161.305 C 352.746 164.581,352.763 165.238,354.029 166.039 C 355.803 167.161,356.184 167.182,357.592 166.235 C 359.325 165.068,377.005 119.175,376.364 117.505 C 375.575 115.450,372.280 115.605,371.144 117.750 M252.429 126.189 C 260.789 149.788,278.583 179.635,288.248 186.271 C 291.137 188.254,294.767 190.355,296.315 190.938 C 300.968 192.693,309.580 192.229,313.739 190.000 C 315.791 188.900,317.985 188.000,318.614 188.000 C 320.007 188.000,327.780 178.993,331.127 173.500 C 336.111 165.322,344.989 145.075,349.423 131.773 C 351.941 124.222,354.000 117.810,354.000 117.523 C 354.000 117.235,353.361 117.000,352.579 117.000 C 351.789 117.000,350.843 118.442,350.448 120.250 C 349.795 123.237,347.130 130.888,341.828 145.000 C 337.848 155.594,329.021 172.552,324.528 178.234 C 318.472 185.895,311.826 189.347,303.349 189.234 C 297.985 189.163,296.478 188.674,291.556 185.405 C 280.583 178.120,263.479 150.406,255.511 127.000 C 253.460 120.977,251.701 117.386,250.704 117.189 C 249.433 116.938,249.764 118.664,252.429 126.189 M490.000 126.261 C 486.975 129.151,478.517 137.158,471.204 144.055 C 461.561 153.150,458.079 157.042,458.531 158.221 C 460.007 162.068,462.254 160.944,472.343 151.311 C 497.928 126.884,499.095 125.661,498.795 123.576 C 498.286 120.034,495.691 120.826,490.000 126.261 M102.306 123.644 C 101.844 124.849,106.667 130.205,120.380 143.713 C 130.668 153.847,139.596 161.968,140.221 161.760 C 140.846 161.551,141.839 160.585,142.429 159.613 C 143.346 158.100,140.865 155.262,125.214 139.923 C 107.269 122.334,103.765 119.844,102.306 123.644 M401.841 139.981 C 397.223 145.872,395.226 148.624,389.497 157.000 C 375.419 177.580,359.832 193.979,347.458 201.228 C 338.262 206.615,321.303 213.638,312.545 215.687 C 306.285 217.151,289.767 217.319,285.121 215.965 C 271.487 211.994,267.901 210.005,255.523 199.549 C 252.235 196.772,248.444 193.600,247.097 192.500 C 234.293 182.042,211.213 158.195,202.175 146.086 C 197.624 139.989,196.053 138.545,195.070 139.556 C 194.287 140.361,210.247 160.342,217.500 167.636 C 218.600 168.742,221.148 171.414,223.161 173.574 C 227.756 178.502,233.438 183.816,242.919 192.054 C 246.999 195.599,251.499 199.563,252.919 200.862 C 254.339 202.161,257.525 204.606,260.000 206.296 C 262.475 207.985,264.725 209.662,265.000 210.021 C 266.394 211.840,275.800 216.450,279.396 217.076 C 281.653 217.469,286.200 218.335,289.500 219.001 C 298.949 220.909,318.909 218.271,324.473 214.380 C 325.557 213.621,327.051 213.000,327.792 213.000 C 330.662 213.000,344.443 206.543,351.790 201.757 C 360.157 196.307,366.760 190.141,375.089 180.000 C 378.026 176.425,381.038 172.874,381.783 172.110 C 382.528 171.345,383.891 169.545,384.811 168.110 C 385.731 166.674,386.843 165.050,387.282 164.500 C 387.720 163.950,391.105 159.225,394.804 154.000 C 398.503 148.775,402.543 143.069,403.783 141.320 C 406.680 137.233,404.938 136.031,401.841 139.981 M173.578 153.873 C 173.059 154.713,186.141 169.730,199.500 183.630 C 205.928 190.318,221.797 204.859,232.031 213.437 C 237.239 217.803,241.725 221.651,242.000 221.989 C 242.275 222.327,244.750 224.155,247.500 226.051 C 250.250 227.948,252.725 229.783,253.000 230.130 C 253.500 230.760,272.963 240.287,280.500 243.591 C 283.562 244.933,288.197 245.453,300.260 245.805 L 316.021 246.264 322.760 243.073 C 326.467 241.318,330.625 239.216,332.000 238.402 C 333.375 237.589,336.824 235.820,339.665 234.471 C 345.406 231.746,357.315 224.113,357.833 222.827 C 358.017 222.372,358.804 222.000,359.583 222.000 C 360.363 222.000,361.000 221.637,361.000 221.193 C 361.000 220.749,364.038 218.178,367.750 215.480 C 371.462 212.781,374.725 210.285,375.000 209.932 C 375.275 209.579,376.695 208.663,378.156 207.895 C 382.680 205.519,398.989 190.671,410.101 178.813 C 429.802 157.789,430.942 156.502,430.971 155.250 C 431.028 152.806,429.230 154.082,423.926 160.250 C 420.970 163.688,416.003 169.065,412.888 172.200 C 409.773 175.335,406.376 178.935,405.340 180.200 C 400.523 186.083,382.606 202.104,375.928 206.499 C 371.842 209.189,365.350 213.940,361.500 217.058 C 353.503 223.534,345.466 228.762,337.214 232.855 C 334.071 234.414,328.125 237.447,324.000 239.594 L 316.500 243.497 302.500 243.478 C 286.153 243.456,283.094 242.680,266.528 234.353 C 255.667 228.893,245.330 222.059,237.403 215.098 C 221.808 201.401,216.934 196.863,203.469 183.500 C 195.155 175.250,185.500 165.125,182.012 161.000 C 175.212 152.957,174.511 152.364,173.578 153.873 M453.835 187.217 C 450.387 190.087,446.876 193.032,446.033 193.761 C 445.190 194.491,441.125 197.882,437.000 201.296 C 425.760 210.599,416.989 219.033,401.500 235.428 C 396.669 240.542,389.482 249.258,387.422 252.500 C 386.374 254.150,384.698 256.400,383.698 257.500 C 381.178 260.272,370.620 275.824,368.674 279.630 C 363.152 290.427,361.574 305.667,364.495 320.000 C 366.776 331.191,369.422 336.143,377.663 344.640 C 381.423 348.517,388.329 355.696,393.008 360.594 C 408.733 377.053,445.418 412.484,454.500 419.982 C 459.450 424.069,465.857 429.375,468.738 431.773 C 471.618 434.171,474.426 435.855,474.977 435.514 C 476.165 434.780,474.301 432.762,468.000 427.960 C 465.525 426.074,463.050 424.038,462.500 423.436 C 461.950 422.834,457.227 418.777,452.005 414.421 C 446.783 410.064,433.954 397.950,423.496 387.500 C 413.038 377.050,401.845 366.025,398.622 363.000 C 395.398 359.975,390.677 355.052,388.131 352.060 C 385.584 349.069,381.215 344.344,378.422 341.560 C 370.818 333.983,368.976 330.090,366.088 315.500 C 365.543 312.750,365.259 306.675,365.456 302.000 C 366.022 288.581,369.669 280.555,383.932 261.349 C 386.445 257.967,389.400 253.945,390.500 252.412 C 402.183 236.130,427.872 211.214,456.692 188.209 C 459.648 185.849,461.801 183.486,461.475 182.959 C 460.612 181.563,460.663 181.535,453.835 187.217 M136.569 189.889 C 136.267 190.378,137.703 192.049,139.760 193.602 C 141.817 195.156,143.992 196.894,144.592 197.464 C 145.193 198.034,149.878 202.325,155.002 207.000 C 160.126 211.675,171.083 222.025,179.350 230.000 C 227.501 276.448,227.304 276.228,234.346 291.339 C 236.356 295.651,238.000 300.737,238.000 302.642 C 238.000 307.782,234.995 320.137,233.049 323.000 C 232.114 324.375,230.758 326.981,230.036 328.791 C 229.314 330.601,227.436 333.859,225.862 336.032 C 224.288 338.205,223.000 340.231,223.000 340.534 C 223.000 340.837,222.549 341.628,221.997 342.292 C 221.446 342.956,217.102 348.450,212.344 354.500 C 207.586 360.550,202.749 366.432,201.596 367.570 C 200.443 368.709,196.253 373.026,192.285 377.164 C 182.332 387.544,152.754 415.375,145.000 421.656 C 135.124 429.656,130.796 433.512,129.977 435.043 C 128.507 437.789,130.404 438.252,132.736 435.716 C 133.857 434.497,135.665 432.825,136.753 432.000 C 137.841 431.175,141.830 427.747,145.616 424.382 C 149.402 421.017,156.100 415.127,160.500 411.293 C 173.915 399.602,204.277 368.992,211.081 360.298 C 224.855 342.698,228.285 337.663,233.117 327.958 C 237.797 318.559,240.942 308.093,240.983 301.785 C 241.002 298.716,232.626 281.081,228.404 275.304 C 223.750 268.936,156.580 203.750,146.508 195.827 C 144.934 194.589,142.535 192.547,141.177 191.288 C 138.517 188.823,137.431 188.493,136.569 189.889 M469.482 205.185 C 438.038 227.701,414.598 248.360,403.063 263.723 C 392.749 277.460,389.412 284.460,387.953 295.428 C 386.710 304.768,386.804 306.262,389.411 318.500 C 393.374 337.104,415.122 363.502,444.786 385.714 C 448.615 388.582,452.930 391.467,454.375 392.125 C 455.819 392.783,457.000 393.660,457.000 394.075 C 457.000 394.489,459.330 396.262,462.179 398.015 C 465.027 399.767,471.836 404.337,477.311 408.169 C 483.822 412.727,487.603 414.797,488.245 414.155 C 488.888 413.512,488.023 412.365,485.745 410.836 C 477.387 405.228,470.198 400.245,452.000 387.449 C 428.463 370.898,413.220 356.162,402.402 339.500 C 400.259 336.200,398.216 333.275,397.862 333.000 C 395.964 331.525,392.913 323.485,391.424 316.035 C 390.227 310.049,389.890 304.922,390.271 298.528 C 390.906 287.886,393.049 282.419,401.149 270.778 C 412.165 254.946,422.914 244.323,446.500 225.955 C 453.650 220.387,460.440 215.035,461.589 214.062 C 462.738 213.089,466.423 210.429,469.777 208.151 C 476.319 203.709,477.540 202.452,476.148 201.591 C 475.661 201.291,472.662 202.908,469.482 205.185 M123.583 207.866 C 122.871 209.017,125.171 210.900,133.000 215.576 C 136.575 217.711,140.442 220.368,141.593 221.479 C 145.246 225.005,153.123 231.401,157.384 234.301 C 164.598 239.209,170.709 245.658,176.234 254.196 C 194.394 282.256,197.673 288.919,201.187 304.892 C 203.194 314.016,203.205 314.528,201.545 322.892 C 198.691 337.276,196.145 344.686,191.280 352.774 C 178.721 373.652,162.820 389.307,126.750 416.308 C 120.798 420.764,118.734 423.000,120.572 423.000 C 122.007 423.000,129.970 417.572,134.500 413.506 C 137.250 411.038,139.780 409.014,140.123 409.009 C 142.996 408.967,175.787 379.262,181.529 371.500 C 183.157 369.300,184.732 367.275,185.029 367.000 C 186.065 366.041,193.000 355.156,193.000 354.488 C 193.000 354.118,193.882 352.695,194.959 351.325 C 200.405 344.402,206.766 316.789,204.709 309.000 C 204.491 308.175,203.992 306.150,203.601 304.500 C 199.886 288.847,196.810 281.343,189.364 269.767 C 172.590 243.688,170.531 241.094,160.699 233.650 C 156.739 230.652,151.925 226.773,150.000 225.030 C 144.061 219.654,131.794 211.000,130.111 211.000 C 129.670 211.000,128.495 210.100,127.500 209.000 C 125.539 206.834,124.421 206.510,123.583 207.866 M217.063 235.423 C 216.375 236.254,215.966 237.301,216.155 237.750 C 216.345 238.200,223.475 245.027,232.000 252.922 C 240.525 260.817,248.783 268.589,250.351 270.192 C 253.562 273.476,256.348 273.538,256.807 270.337 C 257.045 268.675,253.050 264.408,239.029 251.347 C 229.083 242.081,220.353 234.368,219.630 234.207 C 218.907 234.046,217.752 234.593,217.063 235.423 M363.060 251.154 C 348.672 264.144,343.990 268.938,344.209 270.458 C 344.867 275.030,348.099 273.007,365.727 256.988 C 375.502 248.105,384.068 240.049,384.762 239.084 C 385.816 237.620,385.709 237.047,384.113 235.602 C 382.270 233.934,381.519 234.489,363.060 251.154 M492.000 245.114 C 455.221 254.916,453.515 255.473,453.180 257.792 C 452.995 259.070,453.491 260.251,454.351 260.581 C 455.171 260.896,461.165 259.713,467.671 257.952 C 490.338 251.818,497.520 249.953,500.500 249.427 C 504.232 248.770,506.265 246.854,505.459 244.755 C 504.457 242.142,503.007 242.181,492.000 245.114 M96.468 246.101 C 96.101 247.256,96.184 248.559,96.651 248.997 C 97.118 249.434,106.275 252.098,117.000 254.915 C 127.725 257.733,138.700 260.708,141.388 261.527 C 145.054 262.643,146.617 262.733,147.638 261.885 C 150.640 259.394,148.470 256.006,143.500 255.424 C 142.950 255.359,141.825 255.069,141.000 254.779 C 140.175 254.489,137.025 253.691,134.000 253.007 C 130.975 252.322,121.975 250.018,114.000 247.887 C 106.025 245.757,98.968 244.011,98.317 244.007 C 97.667 244.003,96.835 244.945,96.468 246.101 M498.500 265.726 C 473.457 273.414,442.346 283.867,437.315 286.284 C 430.466 289.573,425.694 294.675,424.685 299.785 C 423.579 305.386,425.847 312.960,430.166 318.082 C 434.552 323.284,442.012 329.000,444.413 329.000 C 445.286 329.000,446.000 329.401,446.000 329.892 C 446.000 330.382,447.238 331.086,448.750 331.457 C 450.262 331.827,453.787 333.203,456.583 334.515 C 459.378 335.827,462.753 337.109,464.083 337.364 C 465.412 337.619,471.000 339.616,476.500 341.802 C 487.580 346.207,490.598 347.063,502.000 349.036 C 509.316 350.303,510.000 350.257,510.000 348.500 C 510.000 347.547,508.997 346.975,507.250 346.931 C 501.369 346.784,488.365 343.753,480.000 340.580 C 478.075 339.850,473.800 338.249,470.500 337.021 C 461.778 333.778,449.886 329.075,447.000 327.728 C 442.681 325.712,435.560 320.699,434.061 318.619 C 433.269 317.520,431.745 315.745,430.675 314.675 C 426.638 310.638,425.880 300.306,429.250 295.245 C 432.249 290.742,439.708 287.381,464.500 279.361 C 475.500 275.803,486.376 272.218,488.668 271.394 C 490.960 270.571,494.110 269.675,495.668 269.403 C 500.697 268.524,505.000 266.632,505.000 265.299 C 505.000 263.755,504.901 263.761,498.500 265.726 M98.221 266.163 C 98.434 266.802,102.184 268.322,106.554 269.541 C 119.606 273.180,123.755 274.846,140.452 283.152 C 160.209 292.979,162.436 294.301,167.830 299.404 C 175.248 306.421,176.300 310.080,173.384 318.715 C 171.523 324.224,167.286 328.422,159.713 332.256 C 153.657 335.323,141.867 340.000,140.193 340.000 C 139.560 340.000,135.770 341.085,131.771 342.410 C 117.167 347.251,104.394 350.853,100.000 351.369 C 97.525 351.660,95.388 351.921,95.250 351.949 C 95.112 351.977,95.000 352.450,95.000 353.000 C 95.000 355.033,103.825 353.893,115.000 350.416 C 121.325 348.449,130.775 345.506,136.000 343.877 C 141.225 342.248,146.175 340.749,147.000 340.547 C 150.469 339.695,162.843 333.644,167.116 330.709 C 172.874 326.754,175.273 323.086,176.874 315.787 C 178.010 310.608,177.940 309.675,176.127 305.787 C 173.879 300.968,171.135 297.724,165.995 293.807 C 161.923 290.704,124.873 272.000,122.799 272.000 C 122.029 272.000,120.973 271.589,120.450 271.086 C 119.463 270.135,101.508 265.002,99.167 265.001 C 98.433 265.000,98.008 265.523,98.221 266.163 M287.892 276.354 C 277.707 280.544,272.558 285.438,268.335 294.943 C 264.546 303.472,264.905 314.880,269.230 323.422 C 271.623 328.147,279.081 335.491,284.075 338.038 C 293.157 342.671,305.858 342.664,314.962 338.019 C 319.835 335.533,328.722 326.602,330.459 322.444 C 337.131 306.476,332.243 289.380,318.320 279.983 C 309.331 273.917,297.305 272.482,287.892 276.354 M309.236 280.189 C 314.731 281.835,322.223 288.892,325.426 295.438 C 329.510 303.786,329.339 312.708,324.936 320.970 C 321.389 327.623,316.134 332.481,309.263 335.457 C 305.907 336.911,303.561 337.169,297.984 336.702 C 278.057 335.031,266.519 317.939,272.100 298.359 C 273.861 292.182,282.776 282.949,289.159 280.692 C 294.456 278.820,303.878 278.584,309.236 280.189 M238.342 357.087 C 215.268 376.514,214.877 376.901,216.081 379.152 C 216.625 380.168,217.578 381.000,218.198 381.000 C 219.181 381.000,230.771 371.941,236.500 366.694 C 237.600 365.687,242.887 361.190,248.250 356.702 C 257.859 348.660,259.366 346.379,256.592 344.076 C 255.454 343.132,251.947 345.632,238.342 357.087 M344.930 344.584 C 344.060 345.632,343.934 346.642,344.558 347.571 C 345.076 348.343,353.524 356.432,363.332 365.545 C 380.925 381.893,384.141 383.977,384.791 379.456 C 385.008 377.949,380.369 373.038,366.617 360.216 C 356.461 350.747,347.722 343.000,347.198 343.000 C 346.674 343.000,345.653 343.713,344.930 344.584 M452.570 353.678 C 452.216 354.600,452.508 355.937,453.219 356.648 C 453.930 357.359,465.155 360.583,478.162 363.812 C 502.234 369.789,505.000 370.022,505.000 366.075 C 505.000 364.524,501.318 363.328,480.514 358.125 C 467.047 354.756,455.395 352.000,454.621 352.000 C 453.847 352.000,452.924 352.755,452.570 353.678 M127.500 358.072 C 118.150 360.746,107.800 363.461,104.500 364.107 C 97.268 365.521,94.616 367.414,96.067 370.126 C 97.388 372.593,98.683 372.505,110.500 369.142 C 116.000 367.577,126.711 364.587,134.302 362.498 C 147.746 358.798,148.096 358.632,147.802 356.108 C 147.636 354.683,146.825 353.448,146.000 353.364 C 145.175 353.280,136.850 355.398,127.500 358.072 M292.798 368.039 C 291.312 368.458,287.570 369.096,284.483 369.457 C 275.945 370.454,273.688 371.337,257.500 380.017 C 248.802 384.681,246.593 386.402,235.500 397.157 C 230.000 402.490,222.350 409.874,218.500 413.565 C 182.338 448.239,160.155 470.555,161.004 471.404 C 161.636 472.036,166.284 468.143,174.239 460.319 C 197.861 437.086,209.925 425.352,228.541 407.500 C 238.864 397.600,247.884 388.938,248.584 388.250 C 249.284 387.563,250.157 387.000,250.524 387.000 C 250.891 387.000,252.386 386.160,253.846 385.134 C 268.787 374.631,286.443 369.705,309.500 369.608 C 321.435 369.558,323.018 369.774,328.830 372.240 C 332.312 373.717,338.162 376.897,341.830 379.306 C 345.499 381.716,348.962 383.870,349.527 384.093 C 354.011 385.868,373.836 400.985,382.659 409.356 C 388.621 415.014,396.200 422.048,399.500 424.988 C 402.800 427.928,414.208 439.033,424.851 449.666 C 435.494 460.300,444.607 469.000,445.101 469.000 C 447.135 469.000,445.734 466.619,441.383 462.680 C 438.844 460.381,435.582 457.213,434.133 455.640 C 428.398 449.412,406.690 428.006,397.483 419.500 C 392.125 414.550,385.637 408.475,383.066 406.000 C 375.960 399.161,370.626 395.058,357.500 386.337 C 329.974 368.048,326.894 366.851,308.000 367.107 C 301.125 367.200,294.284 367.620,292.798 368.039 M287.914 394.959 C 272.580 397.946,267.188 399.883,260.325 404.870 C 253.893 409.544,239.325 423.759,233.437 431.107 C 230.525 434.741,227.528 438.341,226.778 439.107 C 226.027 439.873,221.158 445.900,215.958 452.500 C 203.559 468.235,204.579 466.981,196.144 476.873 C 186.718 487.928,185.444 489.844,186.686 491.086 C 187.331 491.731,189.697 489.422,193.554 484.387 C 196.790 480.162,200.111 476.032,200.934 475.209 C 201.757 474.386,205.371 470.025,208.965 465.516 C 214.991 457.958,216.700 455.761,221.710 449.131 C 222.695 447.828,224.175 446.007,225.000 445.083 C 225.825 444.160,229.924 439.376,234.108 434.452 C 252.649 412.638,266.733 401.434,278.021 399.519 C 279.934 399.194,287.125 397.864,294.000 396.562 C 308.692 393.779,316.228 393.996,326.500 397.499 C 337.690 401.314,337.102 401.013,357.458 413.317 C 358.535 413.968,359.930 414.950,360.560 415.500 C 361.189 416.050,364.097 418.525,367.022 421.000 C 378.952 431.093,400.749 452.569,408.164 461.534 C 409.999 463.753,412.049 466.228,412.719 467.034 C 416.307 471.347,422.895 479.911,424.444 482.274 C 426.059 484.739,428.000 485.150,428.000 483.028 C 428.000 482.167,418.457 469.742,410.698 460.501 C 408.389 457.751,399.300 448.272,390.500 439.436 C 375.112 423.985,365.597 415.751,356.000 409.580 C 353.525 407.989,350.375 405.954,349.000 405.057 C 344.894 402.379,333.544 397.083,327.321 394.940 C 317.620 391.599,305.125 391.606,287.914 394.959 M299.970 419.359 C 296.929 420.014,293.038 421.548,291.325 422.768 C 285.244 427.099,274.178 440.026,270.548 447.041 C 261.580 464.371,253.242 492.236,251.141 511.901 C 250.038 522.223,252.299 521.272,253.878 510.750 C 256.891 490.679,263.332 468.358,270.254 454.000 C 276.086 441.904,278.265 438.799,286.332 431.094 C 294.648 423.151,296.863 421.979,304.816 421.312 C 311.335 420.766,312.023 420.908,315.639 423.558 C 325.213 430.574,330.994 439.005,343.026 463.500 C 353.801 485.435,356.528 492.845,358.119 504.500 C 359.432 514.122,360.513 516.787,361.504 512.841 C 362.345 509.488,358.644 491.930,355.424 484.000 C 346.123 461.095,331.618 434.727,324.390 427.584 C 314.709 418.018,311.388 416.899,299.970 419.359 M354.697 449.250 C 353.138 450.406,353.246 451.143,356.118 459.000 C 357.827 463.675,361.435 473.575,364.136 481.000 C 370.924 499.660,370.581 499.000,373.479 499.000 C 375.081 499.000,376.000 498.439,376.000 497.462 C 376.000 495.552,360.004 450.969,358.702 449.250 C 358.181 448.563,357.446 448.000,357.069 448.000 C 356.691 448.000,355.624 448.563,354.697 449.250 M241.646 452.927 C 237.025 464.476,225.000 496.971,225.000 497.909 C 225.000 498.509,226.263 499.000,227.806 499.000 C 230.550 499.000,230.811 498.474,239.668 475.062 C 246.058 458.171,248.411 450.811,247.662 450.062 C 245.504 447.904,243.221 448.992,241.646 452.927 M137.250 454.220 C 136.012 454.817,135.000 455.690,135.000 456.159 C 135.000 456.629,127.912 464.251,119.250 473.097 C 103.452 489.230,100.602 493.500,105.628 493.500 C 107.074 493.500,113.426 487.661,125.436 475.292 C 141.254 459.000,143.000 456.869,142.022 455.042 C 140.796 452.750,140.429 452.687,137.250 454.220 M458.667 453.667 C 456.530 455.803,459.464 459.199,476.661 474.497 C 495.143 490.937,498.944 493.312,499.776 488.942 C 500.098 487.250,462.750 453.000,460.583 453.000 C 459.896 453.000,459.033 453.300,458.667 453.667 " stroke="none" fill="black" fill-rule="evenodd"/></svg>