<svg id="svg" version="1.1" width="600" height="600" xmlns="http://www.w3.org/2000/svg"><path d="M229.749 96.120 C 227.419 97.425,227.523 98.782,230.858 110.500 C 232.423 116.000,235.406 126.688,237.488 134.250 C 240.954 146.846,241.465 148.000,243.577 148.000 C 244.845 148.000,246.134 147.592,246.443 147.092 C 246.751 146.593,244.544 137.256,241.538 126.342 C 238.531 115.429,235.776 104.608,235.415 102.296 C 234.625 97.235,232.295 94.696,229.749 96.120 M350.676 96.750 C 350.432 97.162,347.922 106.275,345.097 117.000 C 342.273 127.725,339.292 138.700,338.473 141.388 C 337.357 145.054,337.267 146.617,338.115 147.638 C 340.606 150.640,343.994 148.470,344.576 143.500 C 344.641 142.950,344.926 141.825,345.210 141.000 C 345.494 140.175,346.186 137.475,346.746 135.000 C 347.307 132.525,349.699 123.152,352.063 114.170 C 355.679 100.429,356.134 97.697,354.930 96.936 C 353.179 95.827,351.269 95.744,350.676 96.750 M456.145 120.516 C 446.091 130.736,438.035 139.606,438.242 140.227 C 438.450 140.849,439.415 141.839,440.387 142.429 C 441.900 143.346,444.746 140.857,460.135 125.155 C 473.760 111.254,478.040 106.291,477.807 104.666 C 477.638 103.486,476.808 102.389,475.962 102.228 C 475.063 102.057,466.831 109.654,456.145 120.516 M106.401 104.397 C 106.077 105.242,105.966 106.353,106.156 106.865 C 106.345 107.377,114.694 115.743,124.708 125.456 C 140.999 141.255,143.132 143.000,144.958 142.022 C 146.081 141.421,147.000 140.742,147.000 140.512 C 147.000 139.257,144.554 135.000,143.833 135.000 C 143.367 135.000,135.757 127.912,126.920 119.250 C 118.084 110.588,109.985 103.356,108.922 103.180 C 107.860 103.004,106.726 103.551,106.401 104.397 M220.729 216.132 C 219.778 216.664,219.000 217.600,219.000 218.212 C 219.000 219.184,228.092 230.806,233.306 236.500 C 234.313 237.600,238.810 242.887,243.298 248.250 C 251.340 257.859,253.621 259.366,255.924 256.592 C 256.869 255.453,253.931 251.447,240.584 235.674 C 231.504 224.943,223.711 215.939,223.266 215.664 C 222.821 215.389,221.679 215.600,220.729 216.132 M351.242 227.305 C 345.600 233.462,337.829 241.875,333.972 246.000 C 326.855 253.612,325.802 256.254,329.663 256.807 C 331.325 257.045,335.590 253.050,348.653 239.021 C 357.919 229.070,365.655 220.479,365.845 219.930 C 366.290 218.639,364.087 215.984,362.628 216.055 C 362.007 216.085,356.884 221.147,351.242 227.305 M457.000 234.059 C 437.058 242.766,434.500 244.144,434.500 246.178 C 434.500 247.484,435.188 248.605,436.096 248.780 C 436.974 248.949,446.199 245.414,456.596 240.924 C 466.993 236.435,477.178 232.076,479.228 231.238 C 484.302 229.164,485.781 223.799,481.191 224.117 C 480.261 224.182,469.375 228.656,457.000 234.059 M101.000 227.806 C 101.000 230.550,101.526 230.811,124.938 239.668 C 141.829 246.058,149.189 248.411,149.938 247.662 C 152.096 245.504,151.008 243.221,147.073 241.646 C 135.524 237.025,103.029 225.000,102.091 225.000 C 101.491 225.000,101.000 226.263,101.000 227.806 M284.496 282.863 C 280.407 284.720,276.378 289.688,273.996 295.809 C 272.200 300.424,274.087 308.437,278.123 313.333 C 285.763 322.602,300.664 322.601,308.423 313.330 C 310.676 310.638,312.963 304.514,312.985 301.116 C 313.030 293.994,307.383 284.894,301.357 282.376 C 296.805 280.474,289.276 280.692,284.496 282.863 M299.915 288.752 C 308.650 293.223,309.307 306.085,301.099 311.929 C 296.586 315.143,292.880 315.483,287.640 313.165 C 281.852 310.605,278.328 304.397,279.404 298.660 C 280.152 294.672,284.201 289.270,287.418 287.969 C 290.889 286.565,296.306 286.904,299.915 288.752 M235.194 362.570 C 218.140 380.909,216.011 384.139,220.544 384.791 C 222.052 385.008,227.001 380.327,239.958 366.430 C 254.245 351.106,257.165 347.484,256.317 346.138 C 255.750 345.237,254.659 344.378,253.893 344.230 C 253.127 344.081,244.712 352.334,235.194 362.570 M327.667 344.667 C 327.300 345.033,327.000 345.957,327.000 346.720 C 327.000 348.087,357.513 382.312,360.916 384.762 C 362.380 385.816,362.953 385.709,364.398 384.113 C 366.066 382.270,365.512 381.520,348.883 363.101 C 333.193 345.722,329.671 342.662,327.667 344.667 M140.500 356.210 C 136.100 357.862,126.425 361.426,119.000 364.130 C 100.334 370.928,101.000 370.582,101.000 373.479 C 101.000 375.081,101.561 376.000,102.538 376.000 C 104.853 376.000,149.295 359.858,150.848 358.453 C 151.891 357.509,151.939 356.755,151.062 355.117 C 149.702 352.575,150.363 352.506,140.500 356.210 M433.638 354.500 C 433.322 355.325,433.280 356.563,433.544 357.250 C 434.213 358.986,480.650 377.072,482.558 376.339 C 483.442 376.000,483.976 374.835,483.803 373.623 C 483.500 371.497,475.727 368.013,445.500 356.456 C 435.304 352.557,434.439 352.414,433.638 354.500 M243.131 453.342 C 242.518 454.081,239.384 465.289,236.166 478.249 C 230.208 502.248,229.979 505.000,233.937 505.000 C 235.506 505.000,236.701 501.274,242.128 479.458 C 247.586 457.516,248.271 453.783,246.991 452.973 C 244.993 451.710,244.442 451.763,243.131 453.342 M339.419 454.351 C 339.104 455.171,340.287 461.165,342.048 467.671 C 348.137 490.170,350.046 497.512,350.573 500.459 C 351.124 503.542,352.667 506.000,354.051 506.000 C 354.494 506.000,355.517 505.340,356.324 504.533 C 357.614 503.243,357.379 501.518,354.389 490.283 C 344.576 453.417,344.610 453.521,342.227 453.180 C 340.932 452.994,339.750 453.487,339.419 454.351 M125.553 476.605 C 109.063 495.142,106.685 498.944,111.058 499.776 C 113.113 500.167,147.207 462.320,146.787 460.114 C 146.618 459.226,145.517 458.362,144.341 458.194 C 142.665 457.954,138.602 461.935,125.553 476.605 M440.571 459.571 C 439.707 460.436,439.000 461.380,439.000 461.669 C 439.000 462.160,447.307 470.998,466.332 490.750 C 474.068 498.781,477.438 500.627,478.641 497.494 C 479.009 496.535,476.936 493.540,472.933 489.244 C 453.924 468.850,443.478 458.000,442.850 458.000 C 442.461 458.000,441.436 458.707,440.571 459.571 " stroke="none" fill="black" fill-rule="evenodd"/></svg>