<svg id="svg" version="1.1" width="600" height="600" xmlns="http://www.w3.org/2000/svg"><path d="M262.200 139.703 C 260.067 140.120,259.951 140.489,260.599 144.809 C 260.983 147.371,261.966 151.049,262.783 152.983 C 263.601 154.918,265.974 161.225,268.056 167.000 C 270.139 172.775,272.810 179.975,273.992 183.000 C 276.313 188.942,278.292 194.350,282.363 205.878 C 283.796 209.936,285.373 213.761,285.869 214.378 C 286.364 214.995,287.057 217.075,287.408 219.000 L 288.048 222.500 286.274 220.009 C 285.298 218.640,281.795 214.140,278.490 210.009 C 275.184 205.879,270.909 200.331,268.990 197.681 C 267.070 195.030,263.925 190.889,262.000 188.478 C 260.075 186.067,256.250 181.143,253.500 177.536 C 241.806 162.199,235.694 155.000,234.367 155.000 C 232.248 155.000,231.248 158.049,227.549 175.788 C 226.714 179.796,225.573 183.929,225.015 184.972 C 224.457 186.015,224.000 188.254,224.000 189.948 C 224.000 191.641,223.592 193.809,223.094 194.764 C 222.595 195.719,221.423 200.100,220.490 204.500 C 219.556 208.900,217.981 215.425,216.989 219.000 C 215.997 222.575,214.916 227.075,214.586 229.000 C 214.256 230.925,213.643 234.300,213.222 236.500 L 212.457 240.500 207.215 240.547 C 204.332 240.572,199.842 240.074,197.237 239.440 C 194.631 238.806,188.450 237.754,183.500 237.102 C 169.126 235.211,153.869 232.919,149.000 231.921 C 140.678 230.215,123.005 228.061,121.637 228.586 C 119.518 229.399,117.703 234.045,109.950 258.500 C 108.131 264.238,105.991 270.371,96.864 296.000 C 94.612 302.325,92.556 309.584,92.296 312.132 C 91.844 316.561,91.990 316.885,95.661 319.567 C 97.773 321.109,101.750 324.482,104.500 327.061 C 107.250 329.640,113.778 335.294,119.006 339.625 C 124.235 343.956,130.310 349.144,132.506 351.153 C 145.373 362.922,168.693 382.000,170.212 382.000 C 171.193 382.000,181.559 373.416,193.248 362.925 C 204.936 352.434,216.300 342.268,218.500 340.332 C 235.512 325.369,243.141 317.546,242.647 315.570 C 242.221 313.869,237.728 300.552,228.956 275.000 C 228.295 273.075,227.175 270.150,226.466 268.500 C 223.461 261.500,224.148 258.501,227.555 263.750 C 229.117 266.158,243.377 283.975,248.164 289.500 C 249.117 290.600,252.587 294.940,255.876 299.143 L 261.855 306.787 267.677 307.302 C 270.880 307.585,274.625 307.815,276.000 307.812 C 279.296 307.806,297.505 308.685,312.476 309.573 L 324.453 310.284 318.976 311.722 C 315.964 312.514,312.600 313.295,311.500 313.460 C 310.400 313.624,306.350 314.502,302.500 315.410 C 298.650 316.319,291.450 317.983,286.500 319.109 C 270.515 322.745,261.529 325.185,260.231 326.243 C 259.533 326.811,254.192 337.002,248.363 348.888 C 242.533 360.775,234.666 376.800,230.879 384.500 C 227.093 392.200,223.996 399.700,223.997 401.166 C 223.999 402.662,226.107 407.052,228.799 411.166 C 231.438 415.200,235.368 421.200,237.532 424.500 C 239.696 427.800,241.924 431.274,242.483 432.221 C 243.042 433.167,244.684 435.642,246.131 437.721 C 248.689 441.396,252.419 447.204,262.572 463.323 C 270.719 476.256,272.989 479.149,274.730 478.813 C 275.624 478.641,276.696 477.230,277.111 475.678 C 277.804 473.088,286.071 458.474,291.668 449.946 C 292.950 447.992,294.000 445.892,294.000 445.280 C 294.000 444.667,294.394 444.017,294.875 443.833 C 295.357 443.650,298.126 439.450,301.030 434.500 C 309.044 420.840,309.314 420.443,309.745 421.735 C 310.188 423.065,307.321 433.004,299.942 455.711 C 297.224 464.077,295.000 471.394,295.000 471.972 C 295.000 472.549,294.035 475.074,292.857 477.582 C 290.935 481.671,290.871 482.299,292.240 483.668 C 293.385 484.814,294.248 484.938,295.692 484.165 C 296.751 483.598,301.416 482.439,306.059 481.590 C 310.701 480.740,318.550 479.181,323.500 478.125 C 328.450 477.070,337.450 475.455,343.500 474.537 C 349.550 473.619,358.046 471.974,362.380 470.880 C 366.714 469.786,371.388 469.028,372.767 469.195 C 374.214 469.371,375.636 468.866,376.131 468.000 C 376.847 466.747,389.835 428.252,405.653 380.500 C 407.657 374.450,410.329 366.575,411.590 363.000 C 412.852 359.425,415.234 352.225,416.884 347.000 C 418.534 341.775,421.750 332.325,424.030 326.000 C 426.311 319.675,428.662 312.587,429.257 310.250 C 429.851 307.913,430.640 306.000,431.010 306.000 C 431.635 306.000,433.355 310.154,439.705 327.000 C 441.053 330.575,442.761 334.850,443.501 336.500 C 444.241 338.150,445.760 342.425,446.877 346.000 C 447.994 349.575,450.306 356.325,452.015 361.000 C 453.724 365.675,455.847 371.750,456.733 374.500 C 458.342 379.495,460.572 383.000,462.142 383.000 C 462.599 383.000,463.595 381.538,464.354 379.750 C 465.114 377.963,470.722 369.750,476.817 361.500 C 482.911 353.250,488.933 345.010,490.199 343.190 C 491.464 341.369,494.781 336.869,497.569 333.190 C 500.357 329.510,504.132 324.250,505.959 321.500 C 507.786 318.750,511.275 314.427,513.712 311.893 C 517.464 307.992,517.935 307.072,516.785 305.893 C 515.279 304.349,511.402 297.651,501.216 279.000 C 499.563 275.975,494.339 266.805,489.606 258.623 C 484.873 250.441,481.000 243.554,481.000 243.320 C 481.000 243.086,478.564 238.675,475.587 233.519 C 472.610 228.362,470.015 223.324,469.820 222.322 C 469.555 220.955,468.472 220.465,465.483 220.358 C 463.292 220.280,458.575 219.937,455.000 219.596 C 444.758 218.619,420.049 216.038,414.000 215.313 C 410.975 214.950,408.121 214.745,407.657 214.858 C 405.942 215.273,382.458 211.599,381.300 210.734 C 380.232 209.936,374.124 200.072,373.105 197.500 C 372.888 196.950,371.500 194.925,370.021 193.000 C 368.542 191.075,367.039 188.692,366.680 187.705 C 366.322 186.718,362.310 179.607,357.764 171.903 C 353.219 164.199,348.031 155.138,346.236 151.768 C 344.441 148.397,342.833 145.499,342.662 145.329 C 342.414 145.081,316.155 143.102,291.500 141.474 C 289.300 141.329,285.700 140.970,283.500 140.677 C 276.791 139.784,264.635 139.228,262.200 139.703 M300.000 148.642 C 312.375 149.508,324.525 150.166,327.000 150.103 C 335.400 149.891,335.390 150.180,326.369 167.711 C 313.338 193.037,304.510 209.967,300.259 217.785 L 296.298 225.069 294.522 220.285 C 293.546 217.653,292.159 214.150,291.441 212.500 C 290.722 210.850,289.408 207.283,288.520 204.574 C 287.631 201.865,286.068 197.590,285.045 195.074 C 284.022 192.558,282.184 187.800,280.961 184.500 C 279.738 181.200,277.945 176.925,276.977 175.000 C 276.009 173.075,274.884 169.928,274.476 168.006 C 274.068 166.084,272.219 160.588,270.367 155.793 C 268.515 150.998,267.000 146.771,267.000 146.398 C 267.000 146.026,269.363 146.024,272.250 146.395 C 275.137 146.765,287.625 147.776,300.000 148.642 M348.000 167.604 C 352.125 174.511,357.075 182.938,359.000 186.331 C 360.925 189.724,363.765 194.447,365.311 196.826 C 366.856 199.205,368.385 201.905,368.708 202.826 C 369.031 203.747,370.387 205.976,371.721 207.780 C 373.055 209.583,373.972 211.583,373.759 212.224 C 373.418 213.247,350.417 218.607,336.500 220.906 C 333.750 221.360,329.475 222.268,327.000 222.924 C 317.857 225.344,303.493 227.646,303.138 226.748 C 302.766 225.803,305.594 219.664,307.628 217.000 C 308.743 215.540,328.788 176.770,335.933 162.254 C 337.895 158.269,339.725 155.017,340.000 155.027 C 340.275 155.038,343.875 160.698,348.000 167.604 M248.759 181.429 C 252.201 185.868,258.905 194.577,263.657 200.783 C 268.408 206.989,272.792 212.389,273.398 212.783 C 274.385 213.425,285.000 228.624,285.000 229.395 C 285.000 229.568,280.837 230.244,275.750 230.896 C 270.663 231.548,264.250 232.514,261.500 233.043 C 256.900 233.928,248.079 235.251,227.690 238.115 C 223.394 238.719,219.617 238.951,219.298 238.631 C 218.541 237.874,220.766 226.636,222.689 221.500 C 223.513 219.300,224.796 214.350,225.541 210.500 C 226.285 206.650,227.408 201.250,228.036 198.500 C 228.664 195.750,229.356 192.246,229.574 190.713 C 229.792 189.180,230.399 187.122,230.924 186.141 C 231.450 185.160,232.417 181.239,233.073 177.429 C 233.730 173.618,234.676 169.408,235.176 168.074 L 236.085 165.647 239.292 169.502 C 241.057 171.623,245.316 176.990,248.759 181.429 M398.000 220.248 C 401.575 220.692,409.000 221.486,414.500 222.012 C 420.000 222.537,426.075 223.186,428.000 223.453 C 429.925 223.721,436.675 224.426,443.000 225.019 C 449.325 225.612,455.400 226.266,456.500 226.472 C 457.600 226.678,459.063 226.881,459.750 226.923 C 461.859 227.053,461.229 228.938,454.565 242.452 C 451.025 249.628,444.256 263.558,439.521 273.406 C 434.787 283.255,430.547 290.905,430.100 290.406 C 429.654 289.908,425.565 283.425,421.015 276.000 C 416.465 268.575,411.960 261.361,411.004 259.969 C 410.047 258.577,408.293 255.652,407.106 253.469 C 402.801 245.553,399.662 240.409,396.364 235.866 C 394.514 233.317,393.000 230.892,393.000 230.477 C 393.000 230.061,391.615 227.470,389.922 224.718 C 387.579 220.911,387.149 219.526,388.124 218.923 C 388.828 218.488,389.876 218.426,390.452 218.786 C 391.029 219.145,394.425 219.803,398.000 220.248 M373.643 221.250 C 373.355 221.938,372.378 224.975,371.473 228.000 C 370.567 231.025,367.432 241.150,364.507 250.500 C 356.844 274.995,351.323 292.865,349.912 297.750 C 349.236 300.087,348.296 302.000,347.822 302.000 C 347.348 302.000,344.831 298.803,342.230 294.895 C 336.717 286.614,337.950 288.414,322.073 265.464 C 315.238 255.584,308.263 245.719,306.573 243.542 C 302.098 237.778,300.778 235.003,302.286 234.525 C 306.225 233.279,316.976 231.000,318.920 231.000 C 320.180 231.000,323.751 230.378,326.856 229.618 C 329.960 228.858,337.450 227.229,343.500 225.998 C 349.550 224.767,357.875 222.954,362.000 221.969 C 371.248 219.761,374.347 219.570,373.643 221.250 M383.071 225.750 C 386.134 231.731,409.513 270.423,414.944 278.500 C 416.423 280.700,419.074 285.095,420.835 288.268 L 424.037 294.035 421.708 294.921 C 420.428 295.408,415.132 296.308,409.940 296.921 C 404.748 297.534,398.250 298.459,395.500 298.975 C 392.750 299.491,385.325 300.643,379.000 301.535 C 372.675 302.428,365.873 303.572,363.884 304.079 C 359.354 305.233,355.000 305.267,355.000 304.149 C 355.000 302.918,360.562 284.446,365.132 270.500 C 370.974 252.672,373.541 244.617,377.004 233.250 C 378.722 227.613,380.472 223.000,380.895 223.000 C 381.317 223.000,382.296 224.238,383.071 225.750 M470.888 237.558 C 473.150 241.165,475.000 244.738,475.000 245.499 C 475.000 246.260,475.424 247.144,475.943 247.465 C 476.813 248.002,484.675 261.513,486.138 264.985 C 486.490 265.818,488.852 269.854,491.388 273.954 C 493.925 278.054,496.000 281.957,496.000 282.627 C 496.000 283.298,497.012 285.119,498.250 286.673 C 499.488 288.228,501.381 291.300,502.458 293.500 C 503.535 295.700,505.303 298.807,506.387 300.405 L 508.357 303.310 500.429 302.680 C 496.068 302.334,489.125 301.565,485.000 300.972 C 480.875 300.378,476.150 299.732,474.500 299.536 C 471.882 299.225,466.526 298.556,441.250 295.381 C 435.495 294.658,435.581 294.721,436.974 292.236 C 437.818 290.731,443.148 279.692,462.309 239.767 C 464.614 234.964,466.562 231.026,466.638 231.017 C 466.714 231.008,468.627 233.951,470.888 237.558 M142.500 237.084 C 145.250 237.592,152.225 238.682,158.000 239.506 C 163.775 240.329,171.650 241.661,175.500 242.466 C 179.350 243.271,184.750 244.167,187.500 244.457 C 195.428 245.293,206.000 247.372,206.000 248.095 C 206.000 248.458,205.323 249.317,204.496 250.003 C 203.669 250.690,200.316 254.682,197.044 258.876 C 176.853 284.757,171.126 292.177,169.788 294.193 L 168.286 296.454 166.744 293.477 C 165.895 291.840,164.031 289.239,162.601 287.698 C 161.170 286.158,160.000 284.300,160.000 283.571 C 160.000 282.842,159.328 281.687,158.506 281.005 C 157.685 280.323,155.631 277.456,153.943 274.633 C 151.080 269.846,146.273 262.956,141.166 256.319 C 137.542 251.609,128.000 236.926,128.000 236.059 C 128.000 235.167,134.684 235.639,142.500 237.084 M288.445 240.265 C 287.114 242.594,286.019 245.091,286.012 245.813 C 286.005 246.535,284.592 250.135,282.871 253.813 C 278.571 263.005,277.010 266.590,271.031 281.000 C 264.902 295.770,263.858 298.000,263.068 298.000 C 262.742 298.000,261.580 296.785,260.487 295.300 C 259.394 293.816,255.800 289.255,252.500 285.166 C 249.200 281.076,244.475 275.165,242.000 272.029 C 236.306 264.816,228.033 254.617,223.905 249.723 C 222.153 247.646,220.903 245.764,221.126 245.540 C 221.350 245.317,224.000 244.894,227.016 244.601 C 230.032 244.308,234.975 243.553,238.000 242.922 C 241.025 242.291,245.300 241.611,247.500 241.411 C 249.700 241.211,254.200 240.587,257.500 240.025 C 260.800 239.463,265.300 238.771,267.500 238.487 C 269.700 238.203,273.300 237.618,275.500 237.187 C 277.700 236.757,282.057 236.320,285.183 236.218 L 290.866 236.031 288.445 240.265 M300.014 245.000 C 300.811 245.552,305.257 251.781,310.362 259.500 C 312.181 262.250,314.418 265.118,315.334 265.872 C 316.251 266.627,317.000 267.577,317.000 267.984 C 317.000 268.787,322.990 277.787,333.981 293.500 L 340.976 303.500 334.738 304.135 C 331.307 304.484,328.221 304.606,327.880 304.407 C 327.540 304.207,321.240 303.800,313.880 303.503 C 297.083 302.824,269.712 301.045,269.270 300.604 C 269.087 300.421,269.627 298.972,270.470 297.385 C 271.312 295.798,275.387 286.400,279.524 276.500 C 283.662 266.600,287.903 256.700,288.949 254.500 C 289.996 252.300,291.632 248.475,292.584 246.000 C 295.258 239.054,296.108 238.353,297.829 241.676 C 298.633 243.229,299.616 244.725,300.014 245.000 M133.215 254.081 C 138.016 260.911,142.266 267.175,142.658 268.000 C 143.548 269.872,157.272 290.179,160.565 294.497 C 161.904 296.252,163.000 298.162,163.000 298.741 C 163.000 299.319,159.063 300.312,154.250 300.946 C 149.438 301.580,143.250 302.508,140.500 303.007 C 137.750 303.507,130.100 304.639,123.500 305.524 C 116.900 306.409,108.800 307.732,105.500 308.465 C 102.200 309.197,99.391 309.695,99.257 309.572 C 98.991 309.326,102.648 297.704,104.000 294.500 C 104.465 293.400,105.123 291.150,105.464 289.500 C 105.805 287.850,106.917 284.700,107.936 282.500 C 108.955 280.300,111.960 271.750,114.614 263.500 C 117.268 255.250,120.013 247.375,120.714 246.000 C 121.414 244.625,121.990 242.900,121.994 242.167 C 122.008 239.186,124.913 242.271,133.215 254.081 M215.832 254.750 C 216.974 257.913,218.355 262.075,218.902 264.000 C 219.448 265.925,223.287 277.369,227.433 289.431 C 231.579 301.494,234.864 311.469,234.734 311.599 C 234.604 311.730,232.037 311.198,229.031 310.418 C 226.024 309.638,222.650 309.003,221.532 309.007 C 219.222 309.015,203.009 305.609,195.500 303.538 C 192.750 302.779,187.800 301.865,184.500 301.505 C 181.200 301.145,177.510 300.319,176.301 299.668 C 174.137 298.503,174.189 298.373,179.573 291.492 C 182.582 287.646,187.847 280.846,191.272 276.380 C 205.678 257.596,212.538 249.004,213.128 249.002 C 213.474 249.001,214.690 251.588,215.832 254.750 M425.487 302.750 C 425.087 303.712,424.188 306.300,423.488 308.500 C 422.789 310.700,421.776 313.625,421.237 315.000 C 420.698 316.375,417.417 326.275,413.947 337.000 C 406.134 361.144,403.687 368.000,402.882 368.000 C 402.074 368.000,396.847 362.152,385.000 347.995 C 379.775 341.751,370.893 331.271,365.262 324.706 C 359.631 318.141,355.270 312.372,355.571 311.885 C 355.872 311.398,357.605 311.000,359.423 311.000 C 361.240 311.000,365.151 310.532,368.114 309.960 C 371.076 309.387,376.425 308.486,380.000 307.956 C 383.575 307.426,390.550 306.319,395.500 305.495 C 400.450 304.672,408.504 303.558,413.398 303.018 C 418.291 302.479,422.529 301.805,422.814 301.519 C 423.100 301.234,423.981 301.000,424.774 301.000 C 425.756 301.000,425.983 301.557,425.487 302.750 M451.500 302.599 C 454.800 302.810,458.625 303.405,460.000 303.921 C 461.375 304.436,465.875 305.092,470.000 305.378 C 474.125 305.664,480.650 306.370,484.500 306.947 C 488.350 307.524,494.425 308.259,498.000 308.582 C 507.827 309.469,507.698 309.260,502.757 316.252 C 500.328 319.688,498.053 323.288,497.702 324.250 C 497.350 325.212,496.672 326.000,496.195 326.000 C 495.717 326.000,493.115 329.262,490.413 333.250 C 487.711 337.238,485.256 340.725,484.958 341.000 C 484.659 341.275,479.557 348.137,473.619 356.250 C 467.681 364.363,462.413 371.000,461.911 371.000 C 461.410 371.000,461.000 370.127,461.000 369.059 C 461.000 367.991,460.550 366.840,460.000 366.500 C 459.450 366.160,459.002 365.121,459.005 364.191 C 459.008 363.261,457.711 359.125,456.122 355.000 C 454.533 350.875,451.098 341.650,448.489 334.500 C 445.879 327.350,442.398 317.900,440.752 313.500 C 439.106 309.100,437.523 304.420,437.234 303.099 C 436.724 300.767,436.835 300.720,441.105 301.456 C 443.522 301.872,448.200 302.387,451.500 302.599 M177.000 306.125 C 179.475 306.717,183.975 307.589,187.000 308.063 C 190.025 308.538,196.550 309.851,201.500 310.981 C 206.450 312.111,214.550 313.904,219.500 314.967 C 224.450 316.029,229.793 317.275,231.373 317.737 L 234.245 318.576 230.618 321.343 C 228.622 322.864,225.530 325.565,223.745 327.343 C 221.960 329.122,214.883 335.510,208.019 341.539 C 201.154 347.567,192.604 355.252,189.019 358.615 C 177.028 369.863,173.505 372.975,172.750 372.988 C 172.338 372.994,171.991 368.613,171.979 363.250 C 171.967 357.887,171.711 342.587,171.410 329.250 C 171.109 315.913,171.231 305.011,171.681 305.024 C 172.132 305.038,174.525 305.533,177.000 306.125 M165.058 306.750 C 165.543 312.994,165.956 371.000,165.516 371.000 C 165.181 371.000,160.540 367.293,155.203 362.762 C 144.608 353.766,103.059 318.224,101.587 316.897 C 100.273 315.713,104.568 314.315,111.731 313.596 C 115.123 313.255,118.483 312.763,119.199 312.502 C 120.744 311.939,146.357 308.127,153.469 307.401 C 156.203 307.123,158.640 306.693,158.886 306.447 C 159.643 305.691,164.996 305.953,165.058 306.750 M345.000 313.026 C 345.000 313.591,342.998 320.228,340.551 327.776 C 338.104 335.324,334.222 347.575,331.925 355.000 C 329.628 362.425,327.149 370.075,326.416 372.000 C 325.683 373.925,324.544 377.413,323.883 379.750 C 323.223 382.087,322.145 384.000,321.487 384.000 C 320.829 384.000,318.476 381.947,316.259 379.438 C 314.041 376.928,307.499 369.841,301.720 363.688 C 278.759 339.241,271.000 330.709,271.000 329.911 C 271.000 329.062,275.325 327.697,283.149 326.076 C 291.172 324.414,301.454 322.027,306.772 320.592 C 309.672 319.810,312.147 319.196,312.272 319.229 C 312.646 319.327,327.976 315.839,335.500 313.945 C 343.985 311.808,345.000 311.710,345.000 313.026 M352.000 317.798 C 352.000 318.236,356.163 323.346,361.250 329.153 C 375.745 345.697,385.312 356.901,387.623 360.038 C 388.791 361.623,391.661 365.206,394.000 368.000 C 396.339 370.794,397.989 373.344,397.666 373.667 C 397.343 373.990,395.374 374.617,393.290 375.060 C 384.966 376.831,365.266 381.168,361.500 382.059 C 359.300 382.579,355.250 383.413,352.500 383.912 C 349.750 384.411,343.726 385.760,339.113 386.910 C 326.689 390.006,326.882 390.064,328.658 383.750 C 331.165 374.838,331.267 374.528,332.055 373.500 C 332.476 372.950,333.562 369.635,334.468 366.134 C 335.374 362.633,336.942 357.458,337.952 354.634 C 338.962 351.810,342.161 342.188,345.061 333.250 C 347.961 324.313,350.708 317.000,351.166 317.000 C 351.625 317.000,352.000 317.359,352.000 317.798 M266.293 334.008 C 267.067 335.113,271.255 339.736,275.600 344.283 C 279.945 348.829,288.900 358.377,295.500 365.499 C 302.100 372.621,309.865 380.895,312.756 383.884 C 315.647 386.874,317.897 389.435,317.756 389.575 C 317.615 389.714,314.800 390.063,311.500 390.349 C 308.200 390.635,299.875 391.391,293.000 392.028 C 286.125 392.666,278.700 393.320,276.500 393.481 C 274.300 393.643,267.325 394.282,261.000 394.901 C 254.675 395.520,247.475 396.213,245.000 396.442 C 242.525 396.670,238.588 397.172,236.250 397.556 C 232.856 398.115,232.000 397.959,232.000 396.781 C 232.000 395.970,238.015 383.200,245.367 368.403 C 252.718 353.607,259.705 339.363,260.892 336.750 C 263.276 331.502,264.207 331.030,266.293 334.008 M399.000 381.843 C 399.000 383.097,395.184 394.028,393.481 397.651 C 392.666 399.384,392.000 401.329,392.000 401.973 C 392.000 403.454,386.415 421.031,384.048 427.000 C 383.066 429.475,380.625 436.675,378.623 443.000 C 373.865 458.037,373.687 458.289,370.522 454.500 C 369.145 452.850,362.406 443.175,355.548 433.000 C 340.212 410.247,335.520 403.415,332.413 399.317 C 331.086 397.566,330.000 395.937,330.000 395.697 C 330.000 395.456,331.913 394.789,334.250 394.214 C 342.469 392.192,379.558 384.167,385.760 383.069 C 388.102 382.654,390.315 382.018,390.676 381.657 C 391.642 380.691,399.000 380.856,399.000 381.843 M316.780 396.976 C 316.626 397.337,312.450 404.262,307.500 412.364 C 302.550 420.466,296.925 429.939,295.000 433.414 C 293.075 436.889,290.994 440.355,290.377 441.116 C 289.759 441.877,287.457 445.650,285.262 449.500 C 278.696 461.018,273.963 468.512,273.389 468.300 C 272.771 468.071,253.909 439.258,237.515 413.500 C 230.370 402.274,230.667 403.002,233.227 402.984 C 235.816 402.966,250.965 401.687,275.000 399.455 C 284.075 398.613,295.058 397.721,299.406 397.472 C 303.755 397.224,307.501 396.832,307.731 396.602 C 308.425 395.908,317.083 396.266,316.780 396.976 M332.206 408.500 C 335.220 412.900,340.329 420.325,343.561 425.000 C 346.793 429.675,352.019 437.325,355.175 442.000 C 358.332 446.675,362.734 453.133,364.957 456.351 C 367.181 459.569,369.000 462.598,369.000 463.082 C 369.000 464.199,365.182 465.106,346.500 468.430 C 342.100 469.213,329.995 471.484,319.600 473.477 C 309.205 475.470,300.351 476.740,299.925 476.300 C 299.498 475.860,299.965 473.025,300.962 470.000 C 304.947 457.907,320.653 408.776,323.635 399.072 C 324.217 397.177,325.166 398.220,332.206 408.500 " stroke="none" fill="black" fill-rule="evenodd"/></svg>